<?xml version="1.0" encoding="UTF-8" standalone="no"?>
<!DOCTYPE svg PUBLIC "-//W3C//DTD SVG 1.1//EN" "http://www.w3.org/Graphics/SVG/1.1/DTD/svg11.dtd">
<svg version="1.1" xmlns="http://www.w3.org/2000/svg" xmlns:xlink="http://www.w3.org/1999/xlink" preserveAspectRatio="xMidYMid meet" viewBox="0 0 110 135" width="110" height="135"><defs><path d="M74.67 0C86.45 0 96 9.55 96 21.33C96 41.67 96 81.33 96 101.67C96 113.45 86.45 123 74.67 123C59.73 123 36.27 123 21.33 123C9.55 123 0 113.45 0 101.67C0 81.33 0 41.67 0 21.33C0 9.55 9.55 0 21.33 0C36.27 0 59.73 0 74.67 0Z" id="a5LFjEWeaJ"></path><path d="M18.91 7.95L18.25 8.21L17.61 8.5L16.97 8.81L16.36 9.14L15.75 9.5L15.17 9.88L14.6 10.28L14.04 10.71L13.5 11.15L12.98 11.61L12.48 12.1L12 12.6L11.53 13.12L11.09 13.66L10.67 14.21L10.26 14.78L9.88 15.37L9.53 15.97L9.19 16.59L8.88 17.22L8.88 17.22L9.19 16.59L9.53 15.97L9.88 15.37L10.26 14.78L10.67 14.21L11.09 13.66L11.53 13.12L12 12.6L12.48 12.1L12.98 11.61L13.5 11.15L14.04 10.71L14.6 10.28L15.17 9.88L15.75 9.5L16.36 9.14L16.97 8.81L17.61 8.5L18.25 8.21L18.91 7.95L19.58 7.71L20.26 7.5L20.95 7.31L21.66 7.15L22.37 7.02L22.37 7.02L23.09 6.92L22.37 7.02L21.66 7.15L20.95 7.31L20.26 7.5L19.58 7.71L18.91 7.95ZM69.41 13.68L69.96 13.74L70.51 13.82L71.05 13.92L71.58 14.04L72.11 14.18L72.63 14.34L73.13 14.52L73.63 14.72L74.12 14.93L74.6 15.17L75.07 15.43L75.52 15.7L75.97 15.98L76.4 16.29L76.82 16.61L77.23 16.95L77.62 17.3L78 17.66L78.37 18.04L78.72 18.44L79.06 18.85L79.38 19.27L79.68 19.7L79.97 20.14L80.24 20.6L80.49 21.07L80.73 21.55L80.95 22.03L81.15 22.53L81.33 23.04L81.49 23.56L81.63 24.08L81.75 24.61L81.85 25.16L81.93 25.7L81.98 26.26L82.02 26.82L82.03 27.39L82.03 96.36L82.02 96.93L81.98 97.49L81.93 98.04L81.85 98.59L81.75 99.13L81.63 99.66L81.49 100.19L81.33 100.71L81.15 101.21L80.95 101.71L80.73 102.2L80.49 102.68L80.24 103.15L79.97 103.6L79.68 104.05L79.38 104.48L79.06 104.9L78.72 105.31L78.37 105.7L78 106.08L77.62 106.45L77.23 106.8L76.82 107.14L76.4 107.46L75.97 107.76L75.52 108.05L75.07 108.32L74.6 108.57L74.12 108.81L73.63 109.03L73.13 109.23L72.63 109.41L72.11 109.57L71.58 109.71L71.05 109.83L70.51 109.93L69.96 110.01L69.41 110.06L68.85 110.1L68.28 110.11L27.72 110.11L27.15 110.1L26.59 110.06L26.04 110.01L25.49 109.93L24.95 109.83L24.42 109.71L23.89 109.57L23.37 109.41L22.87 109.23L22.37 109.03L21.88 108.81L21.4 108.57L20.93 108.32L20.48 108.05L20.03 107.76L19.6 107.46L19.18 107.14L18.77 106.8L18.38 106.45L18 106.08L17.63 105.7L17.28 105.31L16.94 104.9L16.62 104.48L16.32 104.05L16.03 103.6L15.76 103.15L15.51 102.68L15.27 102.2L15.05 101.71L14.85 101.21L14.67 100.71L14.51 100.19L14.37 99.66L14.25 99.13L14.15 98.59L14.07 98.04L14.02 97.49L13.98 96.93L13.97 96.36L13.97 27.39L13.98 26.82L14.02 26.26L14.07 25.7L14.15 25.16L14.25 24.61L14.37 24.08L14.51 23.56L14.67 23.04L14.85 22.53L15.05 22.03L15.27 21.55L15.51 21.07L15.76 20.6L16.03 20.14L16.32 19.7L16.62 19.27L16.94 18.85L17.28 18.44L17.63 18.04L18 17.66L18.38 17.3L18.77 16.95L19.18 16.61L19.6 16.29L20.03 15.98L20.48 15.7L20.93 15.43L21.4 15.17L21.88 14.93L22.37 14.72L22.87 14.52L23.37 14.34L23.89 14.18L24.42 14.04L24.95 13.92L25.49 13.82L26.04 13.74L26.59 13.68L27.15 13.65L27.72 13.64L68.28 13.64L68.85 13.65L69.41 13.68Z" id="bJXkrELYh"></path><path d="M66.17 69.35L33.17 69.35" id="bbhLWpDxb"></path><path d="M66.17 81.35L33.17 81.35" id="a1vt0sHwyN"></path><path d="M66.17 93.35L33.17 93.35" id="cnnwjqP6i"></path><path d="M66.17 56.5C66.17 59.26 63.93 61.5 61.17 61.5C58.41 61.5 56.17 59.26 56.17 56.5C56.17 53.74 58.41 51.5 61.17 51.5C63.93 51.5 66.17 53.74 66.17 56.5Z" id="b2If5XhTH"></path></defs><g><g><g><g><g><filter id="shadow7214657" x="-30" y="-30" width="161" height="188" filterUnits="userSpaceOnUse" primitiveUnits="userSpaceOnUse"><feFlood></feFlood><feComposite in2="SourceAlpha" operator="in"></feComposite><feGaussianBlur stdDeviation="3.16"></feGaussianBlur><feOffset dx="5" dy="5" result="afterOffset"></feOffset><feFlood flood-color="#000000" flood-opacity="0.5"></feFlood><feComposite in2="afterOffset" operator="in"></feComposite><feMorphology operator="dilate" radius="0"></feMorphology><feComposite in2="SourceAlpha" operator="out"></feComposite></filter><path d="M74.67 0C86.45 0 96 9.55 96 21.33C96 41.67 96 81.33 96 101.67C96 113.45 86.45 123 74.67 123C59.73 123 36.27 123 21.33 123C9.55 123 0 113.45 0 101.67C0 81.33 0 41.67 0 21.33C0 9.55 9.55 0 21.33 0C36.27 0 59.73 0 74.67 0Z" id="g42XX5w9C" fill="white" fill-opacity="1" filter="url(#shadow7214657)"></path></g><use xlink:href="#a5LFjEWeaJ" opacity="1" fill="#000000" fill-opacity="1"></use></g><g><use xlink:href="#bJXkrELYh" opacity="1" fill="#ffffff" fill-opacity="1"></use></g><g><g><use xlink:href="#bbhLWpDxb" opacity="1" fill-opacity="0" stroke="#000000" stroke-width="6" stroke-opacity="1"></use></g></g><g><g><use xlink:href="#a1vt0sHwyN" opacity="1" fill-opacity="0" stroke="#000000" stroke-width="6" stroke-opacity="1"></use></g></g><g><g><use xlink:href="#cnnwjqP6i" opacity="1" fill-opacity="0" stroke="#000000" stroke-width="6" stroke-opacity="1"></use></g></g><g><use xlink:href="#b2If5XhTH" opacity="1" fill="#000000" fill-opacity="1"></use></g></g></g></g></svg>