<?xml version="1.0" encoding="UTF-8" standalone="no"?>
<!DOCTYPE svg PUBLIC "-//W3C//DTD SVG 1.1//EN" "http://www.w3.org/Graphics/SVG/1.1/DTD/svg11.dtd">
<svg version="1.1" xmlns="http://www.w3.org/2000/svg" xmlns:xlink="http://www.w3.org/1999/xlink" preserveAspectRatio="xMidYMid meet" viewBox="0 0 230 160" width="230" height="160"><defs><path d="M46.16 0.01L46.24 0.02L46.31 0.03L46.38 0.05L46.45 0.07L46.52 0.1L46.59 0.13L46.65 0.16L46.72 0.2L46.78 0.24L46.83 0.28L46.89 0.33L46.95 0.37L47 0.43L47.05 0.48L47.1 0.54L47.15 0.6L47.2 0.67L47.25 0.73L47.29 0.8L47.34 0.87L47.38 0.95L47.42 1.02L47.46 1.1L47.5 1.18L47.54 1.27L47.58 1.35L47.62 1.44L47.65 1.53L47.69 1.62L47.73 1.71L47.76 1.8L47.8 1.9L47.83 2L47.86 2.09L47.9 2.19L47.93 2.3L47.97 2.4L48 2.5L49.73 8.99L50.27 9.16L51.47 9.58L52.65 10.05L53.81 10.57L54.94 11.13L55.03 11.18L60.86 7.8L60.96 7.75L61.05 7.71L61.15 7.66L61.24 7.61L61.34 7.57L61.43 7.52L61.52 7.48L61.61 7.44L61.7 7.4L61.79 7.36L61.88 7.32L61.97 7.29L62.06 7.26L62.14 7.22L62.23 7.2L62.31 7.17L62.4 7.14L62.48 7.12L62.56 7.1L62.64 7.09L62.72 7.07L62.8 7.06L62.88 7.05L62.96 7.05L63.03 7.04L63.11 7.05L63.18 7.05L63.25 7.06L63.33 7.07L63.4 7.08L63.47 7.1L63.54 7.12L63.6 7.15L63.67 7.18L63.73 7.21L63.8 7.25L63.86 7.29L63.92 7.34L63.98 7.39L64.04 7.45L72.53 15.93L72.58 15.99L72.64 16.05L72.68 16.12L72.73 16.18L72.77 16.25L72.8 16.31L72.83 16.38L72.86 16.45L72.89 16.52L72.91 16.59L72.92 16.66L72.94 16.74L72.95 16.81L72.95 16.89L72.96 16.97L72.96 17.05L72.95 17.12L72.95 17.2L72.94 17.29L72.92 17.37L72.91 17.45L72.89 17.53L72.87 17.62L72.85 17.7L72.82 17.79L72.79 17.87L72.76 17.96L72.73 18.05L72.69 18.13L72.65 18.22L72.61 18.31L72.57 18.4L72.53 18.49L72.48 18.58L72.44 18.67L72.39 18.76L72.34 18.85L72.28 18.94L72.23 19.03L72.17 19.12L68.8 24.94L68.87 25.06L69.43 26.19L69.95 27.35L70.42 28.53L70.84 29.73L71.01 30.27L77.5 32L77.6 32.02L77.7 32.05L77.81 32.08L77.91 32.1L78 32.13L78.1 32.16L78.2 32.19L78.29 32.22L78.38 32.26L78.47 32.29L78.56 32.33L78.65 32.36L78.73 32.4L78.82 32.44L78.9 32.48L78.98 32.52L79.05 32.57L79.13 32.61L79.2 32.66L79.27 32.71L79.33 32.76L79.4 32.81L79.46 32.86L79.52 32.91L79.57 32.97L79.63 33.02L79.67 33.08L79.72 33.14L79.76 33.2L79.8 33.27L79.84 33.33L79.87 33.4L79.9 33.47L79.93 33.54L79.95 33.61L79.97 33.68L79.98 33.76L79.99 33.84L80 33.92L80 34L80 46L80 46.08L79.99 46.16L79.98 46.24L79.97 46.31L79.95 46.38L79.93 46.45L79.9 46.52L79.87 46.59L79.84 46.65L79.8 46.72L79.76 46.78L79.72 46.83L79.67 46.89L79.63 46.95L79.57 47L79.52 47.05L79.46 47.1L79.4 47.15L79.33 47.2L79.27 47.25L79.2 47.29L79.13 47.34L79.05 47.38L78.98 47.42L78.9 47.46L78.82 47.5L78.73 47.54L78.65 47.58L78.56 47.62L78.47 47.65L78.38 47.69L78.29 47.73L78.2 47.76L78.1 47.8L78 47.83L77.91 47.86L77.81 47.9L77.7 47.93L77.6 47.97L77.5 48L71.01 49.73L70.84 50.27L70.42 51.47L69.95 52.65L69.43 53.81L68.87 54.94L68.81 55.05L71.37 59.47L71.25 58.69L71.23 58.55L71.22 58.41L71.21 58.28L71.19 58.15L71.18 58.02L71.17 57.89L71.16 57.76L71.16 57.63L71.15 57.51L71.14 57.38L71.14 57.26L71.14 57.14L71.14 57.02L71.14 56.91L71.15 56.79L71.15 56.68L71.16 56.57L71.17 56.46L71.19 56.36L71.2 56.26L71.22 56.15L71.24 56.06L71.27 55.96L71.29 55.87L71.32 55.78L71.36 55.69L71.4 55.61L71.44 55.52L71.48 55.45L71.53 55.37L71.58 55.3L71.63 55.23L71.69 55.16L71.76 55.1L71.83 55.04L71.9 54.98L71.97 54.93L72.06 54.88L72.14 54.83L72.23 54.79L85.69 48.88L85.78 48.85L85.87 48.81L85.97 48.79L86.06 48.77L86.15 48.75L86.24 48.74L86.33 48.74L86.43 48.74L86.52 48.74L86.61 48.75L86.7 48.77L86.79 48.79L86.88 48.81L86.97 48.84L87.06 48.87L87.15 48.91L87.24 48.95L87.33 49L87.42 49.05L87.51 49.1L87.6 49.16L87.68 49.22L87.77 49.28L87.86 49.35L87.94 49.42L88.03 49.49L88.12 49.57L88.2 49.65L88.29 49.74L88.37 49.82L88.46 49.91L88.54 50L88.62 50.1L88.7 50.19L88.79 50.29L88.87 50.39L88.95 50.49L89.03 50.6L89.11 50.7L89.19 50.81L94.39 57.52L94.55 57.5L96.09 57.38L97.64 57.33L99.2 57.34L100.77 57.41L101.46 57.47L106.29 50.69L106.36 50.58L106.44 50.47L106.51 50.37L106.59 50.26L106.66 50.16L106.74 50.06L106.81 49.96L106.89 49.87L106.97 49.78L107.05 49.69L107.13 49.6L107.21 49.52L107.29 49.43L107.37 49.36L107.45 49.28L107.54 49.21L107.62 49.14L107.7 49.07L107.79 49.01L107.87 48.95L107.96 48.9L108.04 48.85L108.13 48.8L108.22 48.76L108.31 48.72L108.39 48.69L108.48 48.66L108.57 48.63L108.66 48.61L108.75 48.59L108.84 48.58L108.93 48.57L109.02 48.57L109.12 48.58L109.21 48.58L109.3 48.6L109.4 48.62L109.49 48.64L109.58 48.67L109.68 48.71L123.46 54.42L123.56 54.46L123.64 54.51L123.73 54.56L123.81 54.61L123.88 54.66L123.95 54.72L124.02 54.78L124.08 54.85L124.14 54.92L124.2 54.99L124.25 55.07L124.3 55.15L124.34 55.23L124.39 55.31L124.42 55.4L124.46 55.49L124.49 55.58L124.52 55.67L124.55 55.77L124.57 55.87L124.6 55.97L124.61 56.08L124.63 56.19L124.65 56.3L124.66 56.41L124.67 56.52L124.68 56.64L124.69 56.76L124.69 56.88L124.69 57L124.7 57.12L124.7 57.25L124.7 57.37L124.7 57.5L124.69 57.63L124.69 57.76L124.68 57.9L124.68 58.03L124.67 58.17L124.67 58.3L123.82 66.73L124.37 67.18L125.56 68.25L126.7 69.37L127.81 70.52L128.86 71.71L128.95 71.82L137.12 70.64L137.25 70.62L137.38 70.61L137.51 70.6L137.64 70.59L137.77 70.59L137.89 70.58L138.02 70.57L138.14 70.57L138.26 70.56L138.38 70.56L138.5 70.56L138.62 70.56L138.73 70.56L138.85 70.57L138.96 70.58L139.07 70.58L139.17 70.6L139.28 70.61L139.38 70.63L139.48 70.64L139.58 70.67L139.67 70.69L139.77 70.72L139.86 70.75L139.95 70.78L140.03 70.82L140.12 70.86L140.2 70.9L140.27 70.95L140.35 71L140.42 71.05L140.49 71.11L140.56 71.17L140.62 71.24L140.68 71.31L140.73 71.39L140.79 71.47L140.84 71.55L140.88 71.64L140.93 71.74L146.96 85.72L147 85.81L147.04 85.91L147.06 86.01L147.09 86.1L147.1 86.2L147.12 86.29L147.12 86.39L147.12 86.48L147.12 86.57L147.11 86.67L147.1 86.76L147.08 86.85L147.06 86.95L147.04 87.04L147 87.13L146.97 87.22L146.93 87.31L146.89 87.4L146.84 87.5L146.79 87.59L146.74 87.67L146.68 87.76L146.62 87.85L146.56 87.94L146.49 88.03L146.42 88.12L146.35 88.2L146.27 88.29L146.19 88.37L146.11 88.46L146.03 88.54L145.94 88.63L145.85 88.71L145.76 88.79L145.66 88.88L145.57 88.96L145.47 89.04L145.37 89.12L145.27 89.2L145.17 89.28L144.34 89.95L148.99 88.71L149.16 88.17L149.58 86.97L150.05 85.79L150.57 84.63L151.13 83.5L151.19 83.39L147.83 77.58L147.78 77.48L147.73 77.39L147.68 77.29L147.64 77.2L147.59 77.1L147.55 77.01L147.5 76.92L147.46 76.83L147.42 76.74L147.38 76.65L147.35 76.56L147.31 76.47L147.28 76.38L147.25 76.29L147.22 76.21L147.19 76.12L147.17 76.04L147.15 75.96L147.13 75.88L147.11 75.8L147.1 75.72L147.08 75.64L147.08 75.56L147.07 75.48L147.07 75.41L147.07 75.33L147.07 75.26L147.08 75.18L147.09 75.11L147.11 75.04L147.12 74.97L147.15 74.9L147.17 74.84L147.2 74.77L147.24 74.7L147.28 74.64L147.32 74.58L147.37 74.52L147.42 74.46L147.47 74.4L155.96 65.91L156.02 65.85L156.08 65.8L156.14 65.75L156.2 65.71L156.27 65.67L156.34 65.64L156.4 65.6L156.47 65.58L156.54 65.55L156.62 65.53L156.69 65.51L156.76 65.5L156.84 65.49L156.91 65.49L156.99 65.48L157.07 65.48L157.15 65.49L157.23 65.49L157.31 65.5L157.39 65.51L157.47 65.53L157.56 65.55L157.64 65.57L157.73 65.59L157.81 65.62L157.9 65.65L157.98 65.68L158.07 65.71L158.16 65.75L158.25 65.78L158.33 65.82L158.42 65.87L158.51 65.91L158.6 65.95L158.69 66L158.78 66.05L158.87 66.1L158.96 66.16L159.05 66.21L159.14 66.26L164.95 69.63L165.06 69.57L166.19 69.01L167.35 68.49L168.53 68.02L169.73 67.59L170.27 67.43L172 60.94L172.02 60.84L172.05 60.73L172.08 60.63L172.1 60.53L172.13 60.43L172.16 60.34L172.19 60.24L172.22 60.15L172.26 60.06L172.29 59.97L172.33 59.88L172.36 59.79L172.4 59.7L172.44 59.62L172.48 59.54L172.52 59.46L172.57 59.39L172.61 59.31L172.66 59.24L172.71 59.17L172.76 59.1L172.81 59.04L172.86 58.98L172.91 58.92L172.97 58.87L173.02 58.81L173.08 58.76L173.14 58.72L173.2 58.67L173.27 58.63L173.33 58.6L173.4 58.57L173.47 58.54L173.54 58.51L173.61 58.49L173.68 58.47L173.76 58.46L173.84 58.45L173.92 58.44L174 58.44L186 58.44L186.08 58.44L186.16 58.45L186.24 58.46L186.31 58.47L186.38 58.49L186.45 58.51L186.52 58.54L186.59 58.57L186.65 58.6L186.72 58.63L186.78 58.67L186.83 58.72L186.89 58.76L186.95 58.81L187 58.87L187.05 58.92L187.1 58.98L187.15 59.04L187.2 59.1L187.25 59.17L187.29 59.24L187.34 59.31L187.38 59.39L187.42 59.46L187.46 59.54L187.5 59.62L187.54 59.7L187.58 59.79L187.62 59.88L187.65 59.97L187.69 60.06L187.73 60.15L187.76 60.24L187.8 60.34L187.83 60.43L187.86 60.53L187.9 60.63L187.93 60.73L187.97 60.84L188 60.94L189.73 67.43L190.27 67.59L191.47 68.02L192.65 68.49L193.81 69.01L194.94 69.57L195.03 69.62L200.86 66.24L200.96 66.19L201.05 66.14L201.15 66.1L201.24 66.05L201.34 66L201.43 65.96L201.52 65.92L201.61 65.88L201.7 65.84L201.79 65.8L201.88 65.76L201.97 65.73L202.06 65.69L202.14 65.66L202.23 65.63L202.31 65.61L202.4 65.58L202.48 65.56L202.56 65.54L202.64 65.52L202.72 65.51L202.8 65.5L202.88 65.49L202.96 65.48L203.03 65.48L203.11 65.48L203.18 65.49L203.25 65.49L203.33 65.51L203.4 65.52L203.47 65.54L203.54 65.56L203.6 65.59L203.67 65.62L203.73 65.65L203.8 65.69L203.86 65.73L203.92 65.78L203.98 65.83L204.04 65.89L212.53 74.37L212.58 74.43L212.64 74.49L212.68 74.56L212.73 74.62L212.77 74.68L212.8 74.75L212.83 74.82L212.86 74.89L212.89 74.96L212.91 75.03L212.92 75.1L212.94 75.18L212.95 75.25L212.95 75.33L212.96 75.41L212.96 75.48L212.95 75.56L212.95 75.64L212.94 75.72L212.92 75.81L212.91 75.89L212.89 75.97L212.87 76.06L212.85 76.14L212.82 76.23L212.79 76.31L212.76 76.4L212.73 76.48L212.69 76.57L212.65 76.66L212.61 76.75L212.57 76.84L212.53 76.93L212.48 77.02L212.44 77.1L212.39 77.19L212.34 77.28L212.28 77.37L212.23 77.46L212.17 77.55L208.8 83.38L208.87 83.5L209.43 84.63L209.95 85.79L210.42 86.97L210.84 88.17L211.01 88.71L217.5 90.44L217.6 90.46L217.7 90.49L217.81 90.51L217.91 90.54L218 90.57L218.1 90.6L218.2 90.63L218.29 90.66L218.38 90.7L218.47 90.73L218.56 90.77L218.65 90.8L218.73 90.84L218.82 90.88L218.9 90.92L218.98 90.96L219.05 91.01L219.13 91.05L219.2 91.1L219.27 91.14L219.33 91.19L219.4 91.24L219.46 91.3L219.52 91.35L219.57 91.4L219.63 91.46L219.67 91.52L219.72 91.58L219.76 91.64L219.8 91.7L219.84 91.77L219.87 91.84L219.9 91.91L219.93 91.98L219.95 92.05L219.97 92.12L219.98 92.2L219.99 92.28L220 92.36L220 92.44L220 104.44L220 104.52L219.99 104.6L219.98 104.68L219.97 104.75L219.95 104.82L219.93 104.89L219.9 104.96L219.87 105.03L219.84 105.09L219.8 105.15L219.76 105.21L219.72 105.27L219.67 105.33L219.63 105.38L219.57 105.44L219.52 105.49L219.46 105.54L219.4 105.59L219.33 105.64L219.27 105.68L219.2 105.73L219.13 105.77L219.05 105.82L218.98 105.86L218.9 105.9L218.82 105.94L218.73 105.98L218.65 106.02L218.56 106.05L218.47 106.09L218.38 106.13L218.29 106.16L218.2 106.2L218.1 106.23L218 106.27L217.91 106.3L217.81 106.34L217.7 106.37L217.6 106.4L217.5 106.44L211.01 108.17L210.84 108.71L210.42 109.91L209.95 111.09L209.43 112.24L208.87 113.37L208.81 113.49L212.17 119.3L212.23 119.39L212.28 119.48L212.34 119.57L212.39 119.66L212.44 119.75L212.48 119.84L212.53 119.93L212.57 120.02L212.61 120.1L212.65 120.19L212.69 120.28L212.73 120.37L212.76 120.45L212.79 120.54L212.82 120.63L212.85 120.71L212.87 120.8L212.89 120.88L212.91 120.96L212.92 121.05L212.94 121.13L212.95 121.21L212.95 121.29L212.96 121.37L212.96 121.45L212.95 121.52L212.95 121.6L212.94 121.68L212.92 121.75L212.91 121.82L212.89 121.89L212.86 121.96L212.83 122.03L212.8 122.1L212.77 122.17L212.73 122.23L212.68 122.3L212.64 122.36L212.58 122.42L212.53 122.48L204.04 130.96L203.98 131.02L203.92 131.07L203.86 131.12L203.8 131.16L203.73 131.2L203.67 131.24L203.6 131.27L203.54 131.29L203.47 131.31L203.4 131.33L203.33 131.35L203.25 131.36L203.18 131.36L203.11 131.37L203.03 131.37L202.96 131.37L202.88 131.36L202.8 131.35L202.72 131.34L202.64 131.33L202.56 131.31L202.48 131.29L202.4 131.27L202.31 131.25L202.23 131.22L202.14 131.19L202.06 131.16L201.97 131.13L201.88 131.09L201.79 131.05L201.7 131.02L201.61 130.98L201.52 130.93L201.43 130.89L201.34 130.85L201.24 130.8L201.15 130.76L201.05 130.71L200.96 130.66L200.86 130.61L195.05 127.25L194.94 127.31L193.81 127.87L192.65 128.38L191.47 128.86L190.27 129.28L189.73 129.45L188 135.94L187.97 136.04L187.93 136.14L187.9 136.24L187.86 136.34L187.83 136.44L187.8 136.54L187.76 136.63L187.73 136.73L187.69 136.82L187.65 136.91L187.62 137L187.58 137.09L187.54 137.17L187.5 137.25L187.46 137.34L187.42 137.41L187.38 137.49L187.34 137.56L187.29 137.64L187.25 137.71L187.2 137.77L187.15 137.84L187.1 137.9L187.05 137.96L187 138.01L186.95 138.06L186.89 138.11L186.83 138.16L186.78 138.2L186.72 138.24L186.65 138.28L186.59 138.31L186.52 138.34L186.45 138.37L186.38 138.39L186.31 138.41L186.24 138.42L186.16 138.43L186.08 138.44L186 138.44L174 138.44L173.92 138.44L173.84 138.43L173.76 138.42L173.68 138.41L173.61 138.39L173.54 138.37L173.47 138.34L173.4 138.31L173.33 138.28L173.27 138.24L173.2 138.2L173.14 138.16L173.08 138.11L173.02 138.06L172.97 138.01L172.91 137.96L172.86 137.9L172.81 137.84L172.76 137.77L172.71 137.71L172.66 137.64L172.61 137.56L172.57 137.49L172.52 137.41L172.48 137.34L172.44 137.25L172.4 137.17L172.36 137.09L172.33 137L172.29 136.91L172.26 136.82L172.22 136.73L172.19 136.63L172.16 136.54L172.13 136.44L172.1 136.34L172.08 136.24L172.05 136.14L172.02 136.04L172 135.94L170.27 129.45L169.73 129.28L168.53 128.86L167.35 128.38L166.19 127.87L165.06 127.31L164.93 127.24L159.14 130.59L159.05 130.64L158.96 130.7L158.87 130.75L158.78 130.8L158.69 130.85L158.6 130.9L158.51 130.94L158.42 130.99L158.33 131.03L158.25 131.07L158.16 131.11L158.07 131.14L157.98 131.18L157.9 131.21L157.81 131.23L157.73 131.26L157.64 131.28L157.56 131.3L157.47 131.32L157.39 131.34L157.31 131.35L157.23 131.36L157.15 131.37L157.07 131.37L156.99 131.37L156.91 131.37L156.84 131.36L156.76 131.35L156.69 131.34L156.62 131.32L156.54 131.3L156.47 131.28L156.4 131.25L156.34 131.22L156.27 131.18L156.2 131.14L156.14 131.1L156.08 131.05L156.02 131L155.96 130.94L147.47 122.46L147.42 122.4L147.37 122.34L147.32 122.27L147.28 122.21L147.24 122.15L147.2 122.08L147.17 122.02L147.15 121.95L147.12 121.88L147.11 121.81L147.09 121.74L147.08 121.67L147.07 121.6L147.07 121.52L147.07 121.45L147.07 121.37L147.08 121.29L147.08 121.22L147.1 121.14L147.11 121.06L147.13 120.98L147.15 120.89L147.17 120.81L147.19 120.73L147.22 120.64L147.25 120.56L147.28 120.47L147.31 120.38L147.35 120.3L147.38 120.21L147.42 120.12L147.46 120.03L147.5 119.93L147.55 119.84L147.59 119.75L147.64 119.66L147.68 119.56L147.73 119.47L147.78 119.37L147.83 119.27L151.18 113.48L151.13 113.37L150.57 112.24L150.05 111.09L149.58 109.91L149.16 108.71L148.99 108.17L146.37 107.47L146.46 107.55L146.55 107.63L146.64 107.72L146.73 107.8L146.81 107.88L146.89 107.97L146.97 108.05L147.05 108.14L147.12 108.23L147.19 108.31L147.25 108.4L147.31 108.49L147.37 108.58L147.43 108.67L147.48 108.76L147.53 108.85L147.57 108.94L147.61 109.03L147.64 109.12L147.68 109.21L147.7 109.3L147.73 109.4L147.74 109.49L147.76 109.58L147.76 109.68L147.77 109.77L147.77 109.87L147.76 109.96L147.75 110.06L147.73 110.15L147.71 110.25L147.68 110.35L147.65 110.44L142.4 124.51L142.36 124.6L142.32 124.69L142.28 124.78L142.23 124.86L142.17 124.93L142.12 125L142.06 125.07L142 125.14L141.93 125.19L141.86 125.25L141.79 125.3L141.72 125.35L141.64 125.4L141.56 125.44L141.47 125.47L141.39 125.51L141.3 125.54L141.21 125.57L141.11 125.59L141.01 125.62L140.92 125.64L140.81 125.66L140.71 125.67L140.6 125.68L140.5 125.69L140.38 125.7L140.27 125.71L140.16 125.71L140.04 125.72L139.92 125.72L139.8 125.72L139.68 125.71L139.56 125.71L139.43 125.71L139.31 125.7L139.18 125.69L139.05 125.69L138.92 125.68L138.79 125.67L138.65 125.66L130.45 124.6L130.01 125.16L129 126.36L127.94 127.51L126.85 128.62L125.71 129.68L125.59 129.79L126.91 138.19L126.94 138.33L126.96 138.46L126.98 138.59L127 138.72L127.02 138.85L127.03 138.97L127.05 139.1L127.06 139.23L127.07 139.35L127.07 139.47L127.08 139.59L127.08 139.71L127.08 139.83L127.08 139.95L127.07 140.06L127.07 140.17L127.06 140.28L127.04 140.39L127.03 140.5L127.01 140.6L126.99 140.7L126.96 140.8L126.94 140.9L126.91 140.99L126.87 141.09L126.83 141.17L126.79 141.26L126.75 141.34L126.7 141.42L126.65 141.5L126.6 141.58L126.54 141.65L126.48 141.72L126.41 141.78L126.34 141.84L126.27 141.9L126.19 141.95L126.1 142L126.02 142.05L125.93 142.09L112.47 148L112.38 148.04L112.29 148.07L112.19 148.09L112.1 148.11L112.01 148.13L111.92 148.14L111.83 148.14L111.75 148.14L111.66 148.13L111.57 148.12L111.48 148.1L111.39 148.08L111.31 148.06L111.22 148.03L111.13 147.99L111.05 147.95L110.96 147.91L110.88 147.86L110.79 147.81L110.71 147.76L110.62 147.7L110.53 147.64L110.45 147.57L110.36 147.5L110.28 147.43L110.19 147.36L110.11 147.28L110.02 147.2L109.93 147.12L109.85 147.03L109.76 146.94L109.68 146.85L109.59 146.76L109.5 146.67L109.41 146.57L109.33 146.48L109.24 146.38L109.15 146.28L109.06 146.17L108.97 146.07L103.77 139.36L103.61 139.38L102.07 139.5L100.52 139.55L98.96 139.54L97.39 139.47L96.69 139.41L91.87 146.19L91.79 146.3L91.7 146.4L91.62 146.5L91.54 146.6L91.46 146.7L91.37 146.8L91.29 146.89L91.21 146.99L91.13 147.08L91.05 147.17L90.97 147.25L90.88 147.34L90.8 147.42L90.72 147.5L90.64 147.57L90.56 147.65L90.48 147.72L90.4 147.78L90.31 147.84L90.23 147.9L90.15 147.96L90.07 148.01L89.98 148.06L89.9 148.11L89.81 148.15L89.73 148.18L89.65 148.21L89.56 148.24L89.47 148.26L89.39 148.28L89.3 148.29L89.21 148.3L89.12 148.3L89.03 148.3L88.94 148.29L88.85 148.28L88.76 148.26L88.67 148.24L88.57 148.21L88.48 148.17L74.7 142.46L74.6 142.42L74.51 142.37L74.43 142.32L74.35 142.27L74.27 142.21L74.2 142.15L74.13 142.09L74.06 142.02L74 141.95L73.94 141.88L73.88 141.8L73.83 141.72L73.78 141.64L73.74 141.56L73.7 141.47L73.66 141.38L73.62 141.28L73.59 141.19L73.56 141.09L73.53 140.99L73.51 140.88L73.48 140.78L73.47 140.67L73.45 140.56L73.44 140.45L73.42 140.33L73.42 140.22L73.41 140.1L73.4 139.98L73.4 139.86L73.4 139.73L73.41 139.61L73.41 139.49L73.42 139.36L73.42 139.23L73.43 139.1L73.45 138.97L73.46 138.84L73.48 138.71L73.49 138.58L74.34 130.15L73.79 129.7L72.6 128.63L71.45 127.51L70.35 126.36L69.3 125.17L69.17 125.02L61.06 126.19L60.93 126.21L60.81 126.23L60.68 126.25L60.55 126.27L60.43 126.28L60.31 126.3L60.18 126.31L60.06 126.32L59.94 126.32L59.82 126.33L59.71 126.33L59.59 126.33L59.48 126.33L59.36 126.32L59.25 126.31L59.14 126.3L59.03 126.29L58.93 126.28L58.83 126.26L58.72 126.24L58.62 126.21L58.53 126.18L58.43 126.15L58.34 126.12L58.25 126.08L58.16 126.04L58.08 126L58 125.95L57.92 125.9L57.84 125.85L57.77 125.79L57.7 125.73L57.63 125.66L57.57 125.59L57.5 125.52L57.45 125.44L57.39 125.36L57.34 125.27L57.29 125.18L57.25 125.09L51.22 111.11L51.18 111.01L51.14 110.92L51.12 110.82L51.1 110.73L51.08 110.63L51.07 110.54L51.06 110.45L51.06 110.36L51.07 110.27L51.08 110.18L51.09 110.09L51.11 110L51.13 109.91L51.16 109.82L51.19 109.73L51.23 109.64L51.27 109.56L51.31 109.47L51.36 109.38L51.41 109.3L51.47 109.21L51.52 109.12L51.58 109.04L51.65 108.95L51.72 108.86L51.79 108.78L51.86 108.69L51.94 108.6L52.02 108.52L52.1 108.43L52.18 108.34L52.27 108.26L52.35 108.17L52.44 108.08L52.53 107.99L52.63 107.9L52.72 107.82L52.82 107.73L52.91 107.64L53.01 107.55L59.4 102.35L59.38 102.2L59.24 100.61L59.15 99.01L59.12 97.41L59.16 95.8L59.2 95.09L52.51 89.97L52.4 89.88L52.3 89.79L52.2 89.71L52.1 89.62L52 89.53L51.91 89.45L51.81 89.36L51.72 89.27L51.63 89.19L51.54 89.1L51.46 89.02L51.37 88.93L51.29 88.85L51.21 88.76L51.14 88.67L51.07 88.59L51 88.5L50.93 88.42L50.87 88.33L50.81 88.25L50.75 88.16L50.7 88.07L50.65 87.99L50.61 87.9L50.56 87.81L50.53 87.72L50.49 87.64L50.47 87.55L50.44 87.46L50.42 87.37L50.41 87.28L50.4 87.19L50.39 87.1L50.4 87L50.4 86.91L50.41 86.82L50.43 86.72L50.45 86.63L50.48 86.53L50.51 86.44L55.76 72.37L55.8 72.28L55.84 72.19L55.88 72.1L55.93 72.02L55.99 71.94L56.04 71.87L56.1 71.8L56.17 71.73L56.23 71.67L56.3 71.61L56.38 71.55L56.45 71.5L56.53 71.45L56.62 71.41L56.7 71.37L56.79 71.33L56.88 71.29L56.97 71.26L57.07 71.23L57.17 71.21L57.27 71.18L57.37 71.16L57.47 71.15L57.58 71.13L57.69 71.12L57.8 71.11L57.91 71.11L58.03 71.1L58.14 71.1L58.26 71.1L58.38 71.1L58.5 71.11L58.62 71.12L58.74 71.13L58.87 71.14L58.99 71.15L59.12 71.16L55.05 68.81L54.94 68.87L53.81 69.43L52.65 69.95L51.47 70.42L50.27 70.84L49.73 71.01L48 77.5L47.97 77.6L47.93 77.7L47.9 77.81L47.86 77.91L47.83 78L47.8 78.1L47.76 78.2L47.73 78.29L47.69 78.38L47.65 78.47L47.62 78.56L47.58 78.65L47.54 78.73L47.5 78.82L47.46 78.9L47.42 78.98L47.38 79.05L47.34 79.13L47.29 79.2L47.25 79.27L47.2 79.33L47.15 79.4L47.1 79.46L47.05 79.52L47 79.57L46.95 79.63L46.89 79.67L46.83 79.72L46.78 79.76L46.72 79.8L46.65 79.84L46.59 79.87L46.52 79.9L46.45 79.93L46.38 79.95L46.31 79.97L46.24 79.98L46.16 79.99L46.08 80L46 80L34 80L33.92 80L33.84 79.99L33.76 79.98L33.68 79.97L33.61 79.95L33.54 79.93L33.47 79.9L33.4 79.87L33.33 79.84L33.27 79.8L33.2 79.76L33.14 79.72L33.08 79.67L33.02 79.63L32.97 79.57L32.91 79.52L32.86 79.46L32.81 79.4L32.76 79.33L32.71 79.27L32.66 79.2L32.61 79.13L32.57 79.05L32.52 78.98L32.48 78.9L32.44 78.82L32.4 78.73L32.36 78.65L32.33 78.56L32.29 78.47L32.26 78.38L32.22 78.29L32.19 78.2L32.16 78.1L32.13 78L32.1 77.91L32.08 77.81L32.05 77.7L32.02 77.6L32 77.5L30.27 71.01L29.73 70.84L28.53 70.42L27.35 69.95L26.19 69.43L25.06 68.87L24.93 68.8L19.14 72.15L19.05 72.21L18.96 72.26L18.87 72.31L18.78 72.36L18.69 72.41L18.6 72.46L18.51 72.51L18.42 72.55L18.33 72.59L18.25 72.63L18.16 72.67L18.07 72.7L17.98 72.74L17.9 72.77L17.81 72.8L17.73 72.82L17.64 72.85L17.56 72.87L17.47 72.88L17.39 72.9L17.31 72.91L17.23 72.92L17.15 72.93L17.07 72.93L16.99 72.93L16.91 72.93L16.84 72.92L16.76 72.91L16.69 72.9L16.62 72.88L16.54 72.86L16.47 72.84L16.4 72.81L16.34 72.78L16.27 72.74L16.2 72.7L16.14 72.66L16.08 72.61L16.02 72.56L15.96 72.5L7.47 64.02L7.42 63.96L7.37 63.9L7.32 63.84L7.28 63.77L7.24 63.71L7.2 63.64L7.17 63.58L7.15 63.51L7.12 63.44L7.11 63.37L7.09 63.3L7.08 63.23L7.07 63.16L7.07 63.08L7.07 63.01L7.07 62.93L7.08 62.86L7.08 62.78L7.1 62.7L7.11 62.62L7.13 62.54L7.15 62.46L7.17 62.37L7.19 62.29L7.22 62.2L7.25 62.12L7.28 62.03L7.31 61.95L7.35 61.86L7.38 61.77L7.42 61.68L7.46 61.59L7.5 61.5L7.55 61.4L7.59 61.31L7.64 61.22L7.68 61.12L7.73 61.03L7.78 60.93L7.83 60.84L11.18 55.04L11.13 54.94L10.57 53.81L10.05 52.65L9.58 51.47L9.16 50.27L8.99 49.73L2.5 48L2.4 47.97L2.3 47.93L2.19 47.9L2.09 47.86L2 47.83L1.9 47.8L1.8 47.76L1.71 47.73L1.62 47.69L1.53 47.65L1.44 47.62L1.35 47.58L1.27 47.54L1.18 47.5L1.1 47.46L1.02 47.42L0.95 47.38L0.87 47.34L0.8 47.29L0.73 47.25L0.67 47.2L0.6 47.15L0.54 47.1L0.48 47.05L0.43 47L0.37 46.95L0.33 46.89L0.28 46.83L0.24 46.78L0.2 46.72L0.16 46.65L0.13 46.59L0.1 46.52L0.07 46.45L0.05 46.38L0.03 46.31L0.02 46.24L0.01 46.16L0 46.08L0 46L0 34L0 33.92L0.01 33.84L0.02 33.76L0.03 33.68L0.05 33.61L0.07 33.54L0.1 33.47L0.13 33.4L0.16 33.33L0.2 33.27L0.24 33.2L0.28 33.14L0.33 33.08L0.37 33.02L0.43 32.97L0.48 32.91L0.54 32.86L0.6 32.81L0.67 32.76L0.73 32.71L0.8 32.66L0.87 32.61L0.95 32.57L1.02 32.52L1.1 32.48L1.18 32.44L1.27 32.4L1.35 32.36L1.44 32.33L1.53 32.29L1.62 32.26L1.71 32.22L1.8 32.19L1.9 32.16L2 32.13L2.09 32.1L2.19 32.08L2.3 32.05L2.4 32.02L2.5 32L8.99 30.27L9.16 29.73L9.58 28.53L10.05 27.35L10.57 26.19L11.13 25.06L11.19 24.95L7.83 19.14L7.78 19.04L7.73 18.95L7.68 18.85L7.64 18.76L7.59 18.66L7.55 18.57L7.5 18.48L7.46 18.39L7.42 18.3L7.38 18.21L7.35 18.12L7.31 18.03L7.28 17.94L7.25 17.86L7.22 17.77L7.19 17.69L7.17 17.6L7.15 17.52L7.13 17.44L7.11 17.36L7.1 17.28L7.08 17.2L7.08 17.12L7.07 17.04L7.07 16.97L7.07 16.89L7.07 16.82L7.08 16.75L7.09 16.67L7.11 16.6L7.12 16.53L7.15 16.46L7.17 16.4L7.2 16.33L7.24 16.27L7.28 16.2L7.32 16.14L7.37 16.08L7.42 16.02L7.47 15.96L15.96 7.47L16.02 7.42L16.08 7.36L16.14 7.32L16.2 7.27L16.27 7.23L16.34 7.2L16.4 7.17L16.47 7.14L16.54 7.11L16.62 7.09L16.69 7.08L16.76 7.06L16.84 7.05L16.91 7.05L16.99 7.04L17.07 7.04L17.15 7.05L17.23 7.05L17.31 7.06L17.39 7.08L17.47 7.09L17.56 7.11L17.64 7.13L17.73 7.15L17.81 7.18L17.9 7.21L17.98 7.24L18.07 7.27L18.16 7.31L18.25 7.35L18.33 7.39L18.42 7.43L18.51 7.47L18.6 7.52L18.69 7.56L18.78 7.61L18.87 7.66L18.96 7.72L19.05 7.77L19.14 7.83L24.95 11.19L25.06 11.13L26.19 10.57L27.35 10.05L28.53 9.58L29.73 9.16L30.27 8.99L32 2.5L32.02 2.4L32.05 2.3L32.08 2.19L32.1 2.09L32.13 2L32.16 1.9L32.19 1.8L32.22 1.71L32.26 1.62L32.29 1.53L32.33 1.44L32.36 1.35L32.4 1.27L32.44 1.18L32.48 1.1L32.52 1.02L32.57 0.95L32.61 0.87L32.66 0.8L32.71 0.73L32.76 0.67L32.81 0.6L32.86 0.54L32.91 0.48L32.97 0.43L33.02 0.37L33.08 0.33L33.14 0.28L33.2 0.24L33.27 0.2L33.33 0.16L33.4 0.13L33.47 0.1L33.54 0.07L33.61 0.05L33.68 0.03L33.76 0.02L33.84 0.01L33.92 0L34 0L46 0L46.08 0L46.16 0.01ZM96.64 76.39L95.82 76.49L95 76.62L94.19 76.78L93.38 76.97L92.59 77.2L91.81 77.45L91.04 77.74L90.28 78.05L89.53 78.4L88.8 78.77L88.08 79.18L87.38 79.61L86.69 80.07L86.02 80.56L85.37 81.07L84.74 81.62L84.13 82.19L83.54 82.78L82.97 83.41L82.42 84.06L81.9 84.73L81.4 85.43L80.93 86.15L80.48 86.9L80.06 87.67L79.67 88.46L79.31 89.27L78.98 90.11L78.68 90.97L78.42 91.82L78.19 92.68L78 93.55L77.84 94.42L77.72 95.28L77.64 96.15L77.58 97.02L77.57 97.89L77.58 98.75L77.63 99.61L77.71 100.47L77.82 101.32L77.96 102.16L78.13 103L78.34 103.83L78.57 104.65L78.84 105.46L79.13 106.26L79.45 107.05L79.81 107.83L80.19 108.59L80.6 109.34L81.03 110.07L81.5 110.79L81.99 111.49L82.5 112.17L83.04 112.83L83.61 113.47L84.2 114.09L84.82 114.69L85.46 115.27L86.13 115.82L86.82 116.35L87.53 116.85L88.27 117.33L89.02 117.78L89.8 118.2L90.6 118.59L91.43 118.95L92.26 119.27L93.1 119.56L93.94 119.81L94.79 120.03L95.63 120.21L96.48 120.35L97.33 120.46L98.17 120.53L99.01 120.57L99.85 120.58L100.69 120.55L101.52 120.49L102.34 120.39L103.16 120.26L103.97 120.1L104.77 119.91L105.57 119.69L106.35 119.43L107.12 119.15L107.88 118.83L108.63 118.48L109.36 118.11L110.08 117.71L110.78 117.27L111.47 116.81L112.14 116.32L112.79 115.81L113.42 115.26L114.03 114.69L114.62 114.1L115.19 113.47L115.74 112.83L116.26 112.15L116.76 111.45L117.23 110.73L117.68 109.99L118.1 109.22L118.49 108.42L118.85 107.61L119.18 106.77L119.48 105.92L119.74 105.06L119.97 104.2L120.16 103.33L120.31 102.47L120.44 101.6L120.52 100.73L120.57 99.86L120.59 98.99L120.58 98.13L120.53 97.27L120.45 96.41L120.34 95.56L120.2 94.72L120.03 93.88L119.82 93.05L119.59 92.23L119.32 91.42L119.03 90.62L118.7 89.83L118.35 89.05L117.97 88.29L117.56 87.54L117.13 86.81L116.66 86.09L116.17 85.39L115.66 84.71L115.12 84.05L114.55 83.41L113.95 82.79L113.34 82.19L112.7 81.61L112.03 81.06L111.34 80.53L110.63 80.03L109.89 79.55L109.13 79.1L108.36 78.68L107.55 78.29L106.73 77.93L105.9 77.61L105.06 77.32L104.22 77.07L103.37 76.85L102.53 76.67L101.68 76.53L100.83 76.42L99.99 76.35L99.15 76.31L98.31 76.3L97.47 76.33L96.64 76.39ZM178.56 81L177.86 81.07L177.16 81.17L176.47 81.29L175.79 81.45L175.13 81.63L174.47 81.83L173.82 82.06L173.19 82.31L172.57 82.59L171.96 82.89L171.36 83.21L170.78 83.56L170.22 83.93L169.66 84.31L169.13 84.72L168.61 85.15L168.11 85.6L167.63 86.06L167.16 86.55L166.71 87.05L166.28 87.57L165.88 88.1L165.49 88.65L165.12 89.22L164.78 89.8L164.45 90.4L164.15 91L163.88 91.63L163.62 92.26L163.39 92.91L163.19 93.56L163.01 94.23L162.86 94.91L162.73 95.6L162.63 96.3L162.56 97L162.51 97.72L162.5 98.44L162.51 99.16L162.56 99.87L162.63 100.58L162.73 101.28L162.86 101.96L163.01 102.64L163.19 103.31L163.39 103.97L163.62 104.62L163.88 105.25L164.15 105.87L164.45 106.48L164.78 107.08L165.12 107.66L165.49 108.22L165.88 108.77L166.28 109.31L166.71 109.83L167.16 110.33L167.63 110.81L168.11 111.28L168.61 111.73L169.13 112.15L169.66 112.56L170.22 112.95L170.78 113.32L171.36 113.66L171.96 113.98L172.57 114.29L173.19 114.56L173.82 114.82L174.47 115.05L175.13 115.25L175.79 115.43L176.47 115.58L177.16 115.71L177.86 115.81L178.56 115.88L179.28 115.92L180 115.94L180.72 115.92L181.44 115.88L182.14 115.81L182.84 115.71L183.53 115.58L184.21 115.43L184.87 115.25L185.53 115.05L186.18 114.82L186.81 114.56L187.43 114.29L188.04 113.98L188.64 113.66L189.22 113.32L189.78 112.95L190.34 112.56L190.87 112.15L191.39 111.73L191.89 111.28L192.37 110.81L192.84 110.33L193.29 109.83L193.72 109.31L194.12 108.77L194.51 108.22L194.88 107.66L195.22 107.08L195.55 106.48L195.85 105.87L196.12 105.25L196.38 104.62L196.61 103.97L196.81 103.31L196.99 102.64L197.14 101.96L197.27 101.28L197.37 100.58L197.44 99.87L197.49 99.16L197.5 98.44L197.49 97.72L197.44 97L197.37 96.3L197.27 95.6L197.14 94.91L196.99 94.23L196.81 93.56L196.61 92.91L196.38 92.26L196.12 91.63L195.85 91L195.55 90.4L195.22 89.8L194.88 89.22L194.51 88.65L194.12 88.1L193.72 87.57L193.29 87.05L192.84 86.55L192.37 86.06L191.89 85.6L191.39 85.15L190.87 84.72L190.34 84.31L189.78 83.93L189.22 83.56L188.64 83.21L188.04 82.89L187.43 82.59L186.81 82.31L186.18 82.06L185.53 81.83L184.87 81.63L184.21 81.45L183.53 81.29L182.84 81.17L182.14 81.07L181.44 81L180.72 80.95L180 80.94L179.28 80.95L178.56 81ZM138.77 94.68L138.92 96.27L139.01 97.87L139.03 99.47L139 101.08L138.95 101.8L140 102.59L140 93.48L138.75 94.5L138.77 94.68ZM67.71 72.28L68.14 71.73L69.16 70.52L70.21 69.37L71.31 68.26L72.45 67.2L72.57 67.1L72.15 64.42L64.68 71.89L67.71 72.28ZM38.56 22.56L37.86 22.63L37.16 22.73L36.47 22.86L35.79 23.01L35.13 23.19L34.47 23.39L33.82 23.62L33.19 23.88L32.57 24.15L31.96 24.45L31.36 24.78L30.78 25.12L30.22 25.49L29.66 25.88L29.13 26.28L28.61 26.71L28.11 27.16L27.63 27.63L27.16 28.11L26.71 28.61L26.28 29.13L25.88 29.66L25.49 30.22L25.12 30.78L24.78 31.36L24.45 31.96L24.15 32.57L23.88 33.19L23.62 33.82L23.39 34.47L23.19 35.13L23.01 35.79L22.86 36.47L22.73 37.16L22.63 37.86L22.56 38.56L22.51 39.28L22.5 40L22.51 40.72L22.56 41.44L22.63 42.14L22.73 42.84L22.86 43.53L23.01 44.21L23.19 44.87L23.39 45.53L23.62 46.18L23.88 46.81L24.15 47.43L24.45 48.04L24.78 48.64L25.12 49.22L25.49 49.78L25.88 50.34L26.28 50.87L26.71 51.39L27.16 51.89L27.63 52.37L28.11 52.84L28.61 53.29L29.13 53.72L29.66 54.12L30.22 54.51L30.78 54.88L31.36 55.22L31.96 55.55L32.57 55.85L33.19 56.12L33.82 56.38L34.47 56.61L35.13 56.81L35.79 56.99L36.47 57.14L37.16 57.27L37.86 57.37L38.56 57.44L39.28 57.49L40 57.5L40.72 57.49L41.44 57.44L42.14 57.37L42.84 57.27L43.53 57.14L44.21 56.99L44.87 56.81L45.53 56.61L46.18 56.38L46.81 56.12L47.43 55.85L48.04 55.55L48.64 55.22L49.22 54.88L49.78 54.51L50.34 54.12L50.87 53.72L51.39 53.29L51.89 52.84L52.37 52.37L52.84 51.89L53.29 51.39L53.72 50.87L54.12 50.34L54.51 49.78L54.88 49.22L55.22 48.64L55.55 48.04L55.85 47.43L56.12 46.81L56.38 46.18L56.61 45.53L56.81 44.87L56.99 44.21L57.14 43.53L57.27 42.84L57.37 42.14L57.44 41.44L57.49 40.72L57.5 40L57.49 39.28L57.44 38.56L57.37 37.86L57.27 37.16L57.14 36.47L56.99 35.79L56.81 35.13L56.61 34.47L56.38 33.82L56.12 33.19L55.85 32.57L55.55 31.96L55.22 31.36L54.88 30.78L54.51 30.22L54.12 29.66L53.72 29.13L53.29 28.61L52.84 28.11L52.37 27.63L51.89 27.16L51.39 26.71L50.87 26.28L50.34 25.88L49.78 25.49L49.22 25.12L48.64 24.78L48.04 24.45L47.43 24.15L46.81 23.88L46.18 23.62L45.53 23.39L44.87 23.19L44.21 23.01L43.53 22.86L42.84 22.73L42.14 22.63L41.44 22.56L40.72 22.51L40 22.5L39.28 22.51L38.56 22.56Z" id="akO9gDTSd"></path></defs><g><g><g><g><filter id="shadow299845" x="-30" y="-30" width="285" height="213.3" filterUnits="userSpaceOnUse" primitiveUnits="userSpaceOnUse"><feFlood></feFlood><feComposite in2="SourceAlpha" operator="in"></feComposite><feGaussianBlur stdDeviation="3.16"></feGaussianBlur><feOffset dx="5" dy="5" result="afterOffset"></feOffset><feFlood flood-color="#000000" flood-opacity="0.5"></feFlood><feComposite in2="afterOffset" operator="in"></feComposite><feMorphology operator="dilate" radius="0"></feMorphology><feComposite in2="SourceAlpha" operator="out"></feComposite></filter><path d="M46.16 0.01L46.24 0.02L46.31 0.03L46.38 0.05L46.45 0.07L46.52 0.1L46.59 0.13L46.65 0.16L46.72 0.2L46.78 0.24L46.83 0.28L46.89 0.33L46.95 0.37L47 0.43L47.05 0.48L47.1 0.54L47.15 0.6L47.2 0.67L47.25 0.73L47.29 0.8L47.34 0.87L47.38 0.95L47.42 1.02L47.46 1.1L47.5 1.18L47.54 1.27L47.58 1.35L47.62 1.44L47.65 1.53L47.69 1.62L47.73 1.71L47.76 1.8L47.8 1.9L47.83 2L47.86 2.09L47.9 2.19L47.93 2.3L47.97 2.4L48 2.5L49.73 8.99L50.27 9.16L51.47 9.58L52.65 10.05L53.81 10.57L54.94 11.13L55.03 11.18L60.86 7.8L60.96 7.75L61.05 7.71L61.15 7.66L61.24 7.61L61.34 7.57L61.43 7.52L61.52 7.48L61.61 7.44L61.7 7.4L61.79 7.36L61.88 7.32L61.97 7.29L62.06 7.26L62.14 7.22L62.23 7.2L62.31 7.17L62.4 7.14L62.48 7.12L62.56 7.1L62.64 7.09L62.72 7.07L62.8 7.06L62.88 7.05L62.96 7.05L63.03 7.04L63.11 7.05L63.18 7.05L63.25 7.06L63.33 7.07L63.4 7.08L63.47 7.1L63.54 7.12L63.6 7.15L63.67 7.18L63.73 7.21L63.8 7.25L63.86 7.29L63.92 7.34L63.98 7.39L64.04 7.45L72.53 15.93L72.58 15.99L72.64 16.05L72.68 16.12L72.73 16.18L72.77 16.25L72.8 16.31L72.83 16.38L72.86 16.45L72.89 16.52L72.91 16.59L72.92 16.66L72.94 16.74L72.95 16.81L72.95 16.89L72.96 16.97L72.96 17.05L72.95 17.12L72.95 17.2L72.94 17.29L72.92 17.37L72.91 17.45L72.89 17.53L72.87 17.62L72.85 17.7L72.82 17.79L72.79 17.87L72.76 17.96L72.73 18.05L72.69 18.13L72.65 18.22L72.61 18.31L72.57 18.4L72.53 18.49L72.48 18.58L72.44 18.67L72.39 18.76L72.34 18.85L72.28 18.94L72.23 19.03L72.17 19.12L68.8 24.94L68.87 25.06L69.43 26.19L69.95 27.35L70.42 28.53L70.84 29.73L71.01 30.27L77.5 32L77.6 32.02L77.7 32.05L77.81 32.08L77.91 32.1L78 32.13L78.1 32.16L78.2 32.19L78.29 32.22L78.38 32.26L78.47 32.29L78.56 32.33L78.65 32.36L78.73 32.4L78.82 32.44L78.9 32.48L78.98 32.52L79.05 32.57L79.13 32.61L79.2 32.66L79.27 32.71L79.33 32.76L79.4 32.81L79.46 32.86L79.52 32.91L79.57 32.97L79.63 33.02L79.67 33.08L79.72 33.14L79.76 33.2L79.8 33.27L79.84 33.33L79.87 33.4L79.9 33.47L79.93 33.54L79.95 33.61L79.97 33.68L79.98 33.76L79.99 33.84L80 33.92L80 34L80 46L80 46.08L79.99 46.16L79.98 46.24L79.97 46.31L79.95 46.38L79.93 46.45L79.9 46.52L79.87 46.59L79.84 46.65L79.8 46.72L79.76 46.78L79.72 46.83L79.67 46.89L79.63 46.95L79.57 47L79.52 47.05L79.46 47.1L79.4 47.15L79.33 47.2L79.27 47.25L79.2 47.29L79.13 47.34L79.05 47.38L78.98 47.42L78.9 47.46L78.82 47.5L78.73 47.54L78.65 47.58L78.56 47.62L78.47 47.65L78.38 47.69L78.29 47.73L78.2 47.76L78.1 47.8L78 47.83L77.91 47.86L77.81 47.9L77.7 47.93L77.6 47.97L77.5 48L71.01 49.73L70.84 50.27L70.42 51.47L69.95 52.65L69.43 53.81L68.87 54.94L68.81 55.05L71.37 59.47L71.25 58.69L71.23 58.55L71.22 58.41L71.21 58.28L71.19 58.15L71.18 58.02L71.17 57.89L71.16 57.76L71.16 57.63L71.15 57.51L71.14 57.38L71.14 57.26L71.14 57.14L71.14 57.02L71.14 56.91L71.15 56.79L71.15 56.68L71.16 56.57L71.17 56.46L71.19 56.36L71.2 56.26L71.22 56.15L71.24 56.06L71.27 55.96L71.29 55.87L71.32 55.78L71.36 55.69L71.4 55.61L71.44 55.52L71.48 55.45L71.53 55.37L71.58 55.3L71.63 55.23L71.69 55.16L71.76 55.1L71.83 55.04L71.9 54.98L71.97 54.93L72.06 54.88L72.14 54.83L72.23 54.79L85.69 48.88L85.78 48.85L85.87 48.81L85.97 48.79L86.06 48.77L86.15 48.75L86.24 48.74L86.33 48.74L86.43 48.74L86.52 48.74L86.61 48.75L86.7 48.77L86.79 48.79L86.88 48.81L86.97 48.84L87.06 48.87L87.15 48.91L87.24 48.95L87.33 49L87.42 49.05L87.51 49.1L87.6 49.16L87.68 49.22L87.77 49.28L87.86 49.35L87.94 49.42L88.03 49.49L88.12 49.57L88.2 49.65L88.29 49.74L88.37 49.82L88.46 49.91L88.54 50L88.62 50.1L88.7 50.19L88.79 50.29L88.87 50.39L88.95 50.49L89.03 50.6L89.11 50.7L89.19 50.81L94.39 57.52L94.55 57.5L96.09 57.38L97.64 57.33L99.2 57.34L100.77 57.41L101.46 57.47L106.29 50.69L106.36 50.58L106.44 50.47L106.51 50.37L106.59 50.26L106.66 50.16L106.74 50.06L106.81 49.96L106.89 49.87L106.97 49.78L107.05 49.69L107.13 49.6L107.21 49.52L107.29 49.43L107.37 49.36L107.45 49.28L107.54 49.21L107.62 49.14L107.7 49.07L107.79 49.01L107.87 48.95L107.96 48.9L108.04 48.85L108.13 48.8L108.22 48.76L108.31 48.72L108.39 48.69L108.48 48.66L108.57 48.63L108.66 48.61L108.75 48.59L108.84 48.58L108.93 48.57L109.02 48.57L109.12 48.58L109.21 48.58L109.3 48.6L109.4 48.62L109.49 48.64L109.58 48.67L109.68 48.71L123.46 54.42L123.56 54.46L123.64 54.51L123.73 54.56L123.81 54.61L123.88 54.66L123.95 54.72L124.02 54.78L124.08 54.85L124.14 54.92L124.2 54.99L124.25 55.07L124.3 55.15L124.34 55.23L124.39 55.31L124.42 55.4L124.46 55.49L124.49 55.58L124.52 55.67L124.55 55.77L124.57 55.87L124.6 55.97L124.61 56.08L124.63 56.19L124.65 56.3L124.66 56.41L124.67 56.52L124.68 56.64L124.69 56.76L124.69 56.88L124.69 57L124.7 57.12L124.7 57.25L124.7 57.37L124.7 57.5L124.69 57.63L124.69 57.76L124.68 57.9L124.68 58.03L124.67 58.17L124.67 58.3L123.82 66.73L124.37 67.18L125.56 68.25L126.7 69.37L127.81 70.52L128.86 71.71L128.95 71.82L137.12 70.64L137.25 70.62L137.38 70.61L137.51 70.6L137.64 70.59L137.77 70.59L137.89 70.58L138.02 70.57L138.14 70.57L138.26 70.56L138.38 70.56L138.5 70.56L138.62 70.56L138.73 70.56L138.85 70.57L138.96 70.58L139.07 70.58L139.17 70.6L139.28 70.61L139.38 70.63L139.48 70.64L139.58 70.67L139.67 70.69L139.77 70.72L139.86 70.75L139.95 70.78L140.03 70.82L140.12 70.86L140.2 70.9L140.27 70.95L140.35 71L140.42 71.05L140.49 71.11L140.56 71.17L140.62 71.24L140.68 71.31L140.73 71.39L140.79 71.47L140.84 71.55L140.88 71.64L140.93 71.74L146.96 85.72L147 85.81L147.04 85.91L147.06 86.01L147.09 86.1L147.1 86.2L147.12 86.29L147.12 86.39L147.12 86.48L147.12 86.57L147.11 86.67L147.1 86.76L147.08 86.85L147.06 86.95L147.04 87.04L147 87.13L146.97 87.22L146.93 87.31L146.89 87.4L146.84 87.5L146.79 87.59L146.74 87.67L146.68 87.76L146.62 87.85L146.56 87.94L146.49 88.03L146.42 88.12L146.35 88.2L146.27 88.29L146.19 88.37L146.11 88.46L146.03 88.54L145.94 88.63L145.85 88.71L145.76 88.79L145.66 88.88L145.57 88.96L145.47 89.04L145.37 89.12L145.27 89.2L145.17 89.28L144.34 89.95L148.99 88.71L149.16 88.17L149.58 86.97L150.05 85.79L150.57 84.63L151.13 83.5L151.19 83.39L147.83 77.58L147.78 77.48L147.73 77.39L147.68 77.29L147.64 77.2L147.59 77.1L147.55 77.01L147.5 76.92L147.46 76.83L147.42 76.74L147.38 76.65L147.35 76.56L147.31 76.47L147.28 76.38L147.25 76.29L147.22 76.21L147.19 76.12L147.17 76.04L147.15 75.96L147.13 75.88L147.11 75.8L147.1 75.72L147.08 75.64L147.08 75.56L147.07 75.48L147.07 75.41L147.07 75.33L147.07 75.26L147.08 75.18L147.09 75.11L147.11 75.04L147.12 74.97L147.15 74.9L147.17 74.84L147.2 74.77L147.24 74.7L147.28 74.64L147.32 74.58L147.37 74.52L147.42 74.46L147.47 74.4L155.96 65.91L156.02 65.85L156.08 65.8L156.14 65.75L156.2 65.71L156.27 65.67L156.34 65.64L156.4 65.6L156.47 65.58L156.54 65.55L156.62 65.53L156.69 65.51L156.76 65.5L156.84 65.49L156.91 65.49L156.99 65.48L157.07 65.48L157.15 65.49L157.23 65.49L157.31 65.5L157.39 65.51L157.47 65.53L157.56 65.55L157.64 65.57L157.73 65.59L157.81 65.62L157.9 65.65L157.98 65.68L158.07 65.71L158.16 65.75L158.25 65.78L158.33 65.82L158.42 65.87L158.51 65.91L158.6 65.95L158.69 66L158.78 66.05L158.87 66.1L158.96 66.16L159.05 66.21L159.14 66.26L164.95 69.63L165.06 69.57L166.19 69.01L167.35 68.49L168.53 68.02L169.73 67.59L170.27 67.43L172 60.94L172.02 60.84L172.05 60.73L172.08 60.63L172.1 60.53L172.13 60.43L172.16 60.34L172.19 60.24L172.22 60.15L172.26 60.06L172.29 59.97L172.33 59.88L172.36 59.79L172.4 59.7L172.44 59.62L172.48 59.54L172.52 59.46L172.57 59.39L172.61 59.31L172.66 59.24L172.71 59.17L172.76 59.1L172.81 59.04L172.86 58.98L172.91 58.92L172.97 58.87L173.02 58.81L173.08 58.76L173.14 58.72L173.2 58.67L173.27 58.63L173.33 58.6L173.4 58.57L173.47 58.54L173.54 58.51L173.61 58.49L173.68 58.47L173.76 58.46L173.84 58.45L173.92 58.44L174 58.44L186 58.44L186.08 58.44L186.16 58.45L186.24 58.46L186.31 58.47L186.38 58.49L186.45 58.51L186.52 58.54L186.59 58.57L186.65 58.6L186.72 58.63L186.78 58.67L186.83 58.72L186.89 58.76L186.95 58.81L187 58.87L187.05 58.92L187.1 58.98L187.15 59.04L187.2 59.1L187.25 59.17L187.29 59.24L187.34 59.31L187.38 59.39L187.42 59.46L187.46 59.54L187.5 59.62L187.54 59.7L187.58 59.79L187.62 59.88L187.65 59.97L187.69 60.06L187.73 60.15L187.76 60.24L187.8 60.34L187.83 60.43L187.86 60.53L187.9 60.63L187.93 60.73L187.97 60.84L188 60.94L189.73 67.43L190.27 67.59L191.47 68.02L192.65 68.49L193.81 69.01L194.94 69.57L195.03 69.62L200.86 66.24L200.96 66.19L201.05 66.14L201.15 66.1L201.24 66.05L201.34 66L201.43 65.96L201.52 65.92L201.61 65.88L201.7 65.84L201.79 65.8L201.88 65.76L201.97 65.73L202.06 65.69L202.14 65.66L202.23 65.63L202.31 65.61L202.4 65.58L202.48 65.56L202.56 65.54L202.64 65.52L202.72 65.51L202.8 65.5L202.88 65.49L202.96 65.48L203.03 65.48L203.11 65.48L203.18 65.49L203.25 65.49L203.33 65.51L203.4 65.52L203.47 65.54L203.54 65.56L203.6 65.59L203.67 65.62L203.73 65.65L203.8 65.69L203.86 65.73L203.92 65.78L203.98 65.83L204.04 65.89L212.53 74.37L212.58 74.43L212.64 74.49L212.68 74.56L212.73 74.62L212.77 74.68L212.8 74.75L212.83 74.82L212.86 74.89L212.89 74.96L212.91 75.03L212.92 75.1L212.94 75.18L212.95 75.25L212.95 75.33L212.96 75.41L212.96 75.48L212.95 75.56L212.95 75.64L212.94 75.72L212.92 75.81L212.91 75.89L212.89 75.97L212.87 76.06L212.85 76.14L212.82 76.23L212.79 76.31L212.76 76.4L212.73 76.48L212.69 76.57L212.65 76.66L212.61 76.75L212.57 76.84L212.53 76.93L212.48 77.02L212.44 77.1L212.39 77.19L212.34 77.28L212.28 77.37L212.23 77.46L212.17 77.55L208.8 83.38L208.87 83.5L209.43 84.63L209.95 85.79L210.42 86.97L210.84 88.17L211.01 88.71L217.5 90.44L217.6 90.46L217.7 90.49L217.81 90.51L217.91 90.54L218 90.57L218.1 90.6L218.2 90.63L218.29 90.66L218.38 90.7L218.47 90.73L218.56 90.77L218.65 90.8L218.73 90.84L218.82 90.88L218.9 90.92L218.98 90.96L219.05 91.01L219.13 91.05L219.2 91.1L219.27 91.14L219.33 91.19L219.4 91.24L219.46 91.3L219.52 91.35L219.57 91.4L219.63 91.46L219.67 91.52L219.72 91.58L219.76 91.64L219.8 91.7L219.84 91.77L219.87 91.84L219.9 91.91L219.93 91.98L219.95 92.05L219.97 92.12L219.98 92.2L219.99 92.28L220 92.36L220 92.44L220 104.44L220 104.52L219.99 104.6L219.98 104.68L219.97 104.75L219.95 104.82L219.93 104.89L219.9 104.96L219.87 105.03L219.84 105.09L219.8 105.15L219.76 105.21L219.72 105.27L219.67 105.33L219.63 105.38L219.57 105.44L219.52 105.49L219.46 105.54L219.4 105.59L219.33 105.64L219.27 105.68L219.2 105.73L219.13 105.77L219.05 105.82L218.98 105.86L218.9 105.9L218.82 105.94L218.73 105.98L218.65 106.02L218.56 106.05L218.47 106.09L218.38 106.13L218.29 106.16L218.2 106.2L218.1 106.23L218 106.27L217.91 106.3L217.81 106.34L217.7 106.37L217.6 106.4L217.5 106.44L211.01 108.17L210.84 108.71L210.42 109.91L209.95 111.09L209.43 112.24L208.87 113.37L208.81 113.49L212.17 119.3L212.23 119.39L212.28 119.48L212.34 119.57L212.39 119.66L212.44 119.75L212.48 119.84L212.53 119.93L212.57 120.02L212.61 120.1L212.65 120.19L212.69 120.28L212.73 120.37L212.76 120.45L212.79 120.54L212.82 120.63L212.85 120.71L212.87 120.8L212.89 120.88L212.91 120.96L212.92 121.05L212.94 121.13L212.95 121.21L212.95 121.29L212.96 121.37L212.96 121.45L212.95 121.52L212.95 121.6L212.94 121.68L212.92 121.75L212.91 121.82L212.89 121.89L212.86 121.96L212.83 122.03L212.8 122.1L212.77 122.17L212.73 122.23L212.68 122.3L212.64 122.36L212.58 122.42L212.53 122.48L204.04 130.96L203.98 131.02L203.92 131.07L203.86 131.12L203.8 131.16L203.73 131.2L203.67 131.24L203.6 131.27L203.54 131.29L203.47 131.31L203.4 131.33L203.33 131.35L203.25 131.36L203.18 131.36L203.11 131.37L203.03 131.37L202.96 131.37L202.88 131.36L202.8 131.35L202.72 131.34L202.64 131.33L202.56 131.31L202.48 131.29L202.4 131.27L202.31 131.25L202.23 131.22L202.14 131.19L202.06 131.16L201.97 131.13L201.88 131.09L201.79 131.05L201.7 131.02L201.61 130.98L201.52 130.93L201.43 130.89L201.34 130.85L201.24 130.8L201.15 130.76L201.05 130.71L200.96 130.66L200.86 130.61L195.05 127.25L194.94 127.31L193.81 127.87L192.65 128.38L191.47 128.86L190.27 129.28L189.73 129.45L188 135.94L187.97 136.04L187.93 136.14L187.9 136.24L187.86 136.34L187.83 136.44L187.8 136.54L187.76 136.63L187.73 136.73L187.69 136.82L187.65 136.91L187.62 137L187.58 137.09L187.54 137.17L187.5 137.25L187.46 137.34L187.42 137.41L187.38 137.49L187.34 137.56L187.29 137.64L187.25 137.71L187.2 137.77L187.15 137.84L187.1 137.9L187.05 137.96L187 138.01L186.95 138.06L186.89 138.11L186.83 138.16L186.78 138.2L186.72 138.24L186.65 138.28L186.59 138.31L186.52 138.34L186.45 138.37L186.38 138.39L186.31 138.41L186.24 138.42L186.16 138.43L186.08 138.44L186 138.44L174 138.44L173.92 138.44L173.84 138.43L173.76 138.42L173.68 138.41L173.61 138.39L173.54 138.37L173.47 138.34L173.4 138.31L173.33 138.28L173.27 138.24L173.2 138.2L173.14 138.16L173.08 138.11L173.02 138.06L172.97 138.01L172.91 137.96L172.86 137.9L172.81 137.84L172.76 137.77L172.71 137.71L172.66 137.64L172.61 137.56L172.57 137.49L172.52 137.41L172.48 137.34L172.44 137.25L172.4 137.17L172.36 137.09L172.33 137L172.29 136.91L172.26 136.82L172.22 136.73L172.19 136.63L172.16 136.54L172.13 136.44L172.1 136.34L172.08 136.24L172.05 136.14L172.02 136.04L172 135.94L170.27 129.45L169.73 129.28L168.53 128.86L167.35 128.38L166.19 127.87L165.06 127.31L164.93 127.24L159.14 130.59L159.05 130.64L158.96 130.7L158.87 130.75L158.78 130.8L158.69 130.85L158.6 130.9L158.51 130.94L158.42 130.99L158.33 131.03L158.25 131.07L158.16 131.11L158.07 131.14L157.98 131.18L157.9 131.21L157.81 131.23L157.73 131.26L157.64 131.28L157.56 131.3L157.47 131.32L157.39 131.34L157.31 131.35L157.23 131.36L157.15 131.37L157.07 131.37L156.99 131.37L156.91 131.37L156.84 131.36L156.76 131.35L156.69 131.34L156.62 131.32L156.54 131.3L156.47 131.28L156.4 131.25L156.34 131.22L156.27 131.18L156.2 131.14L156.14 131.1L156.08 131.05L156.02 131L155.96 130.94L147.47 122.46L147.42 122.4L147.37 122.34L147.32 122.27L147.28 122.21L147.24 122.15L147.2 122.08L147.17 122.02L147.15 121.95L147.12 121.88L147.11 121.81L147.09 121.74L147.08 121.67L147.07 121.6L147.07 121.52L147.07 121.45L147.07 121.37L147.08 121.29L147.08 121.22L147.1 121.14L147.11 121.06L147.13 120.98L147.15 120.89L147.17 120.81L147.19 120.73L147.22 120.64L147.25 120.56L147.28 120.47L147.31 120.38L147.35 120.3L147.38 120.21L147.42 120.12L147.46 120.03L147.5 119.93L147.55 119.84L147.59 119.75L147.64 119.66L147.68 119.56L147.73 119.47L147.78 119.37L147.83 119.27L151.18 113.48L151.13 113.37L150.57 112.24L150.05 111.09L149.58 109.91L149.16 108.71L148.99 108.17L146.37 107.47L146.46 107.55L146.55 107.63L146.64 107.72L146.73 107.8L146.81 107.88L146.89 107.97L146.97 108.05L147.05 108.14L147.12 108.23L147.19 108.31L147.25 108.4L147.31 108.49L147.37 108.58L147.43 108.67L147.48 108.76L147.53 108.85L147.57 108.94L147.61 109.03L147.64 109.12L147.68 109.21L147.7 109.3L147.73 109.4L147.74 109.49L147.76 109.58L147.76 109.68L147.77 109.77L147.77 109.87L147.76 109.96L147.75 110.06L147.73 110.15L147.71 110.25L147.68 110.35L147.65 110.44L142.4 124.51L142.36 124.6L142.32 124.69L142.28 124.78L142.23 124.86L142.17 124.93L142.12 125L142.06 125.07L142 125.14L141.93 125.19L141.86 125.25L141.79 125.3L141.72 125.35L141.64 125.4L141.56 125.44L141.47 125.47L141.39 125.51L141.3 125.54L141.21 125.57L141.11 125.59L141.01 125.62L140.92 125.64L140.81 125.66L140.71 125.67L140.6 125.68L140.5 125.69L140.38 125.7L140.27 125.71L140.16 125.71L140.04 125.72L139.92 125.72L139.8 125.72L139.68 125.71L139.56 125.71L139.43 125.71L139.31 125.7L139.18 125.69L139.05 125.69L138.92 125.68L138.79 125.67L138.65 125.66L130.45 124.6L130.01 125.16L129 126.36L127.94 127.51L126.85 128.62L125.71 129.68L125.59 129.79L126.91 138.19L126.94 138.33L126.96 138.46L126.98 138.59L127 138.72L127.02 138.85L127.03 138.97L127.05 139.1L127.06 139.23L127.07 139.35L127.07 139.47L127.08 139.59L127.08 139.71L127.08 139.83L127.08 139.95L127.07 140.06L127.07 140.17L127.06 140.28L127.04 140.39L127.03 140.5L127.01 140.6L126.99 140.7L126.96 140.8L126.94 140.9L126.91 140.99L126.87 141.09L126.83 141.17L126.79 141.26L126.75 141.34L126.7 141.42L126.65 141.5L126.6 141.58L126.54 141.65L126.48 141.72L126.41 141.78L126.34 141.84L126.27 141.9L126.19 141.95L126.1 142L126.02 142.05L125.93 142.09L112.47 148L112.38 148.04L112.29 148.07L112.19 148.09L112.1 148.11L112.01 148.13L111.92 148.14L111.83 148.14L111.75 148.14L111.66 148.13L111.57 148.12L111.48 148.1L111.39 148.08L111.31 148.06L111.22 148.03L111.13 147.99L111.05 147.95L110.96 147.91L110.88 147.86L110.79 147.81L110.71 147.76L110.62 147.7L110.53 147.64L110.45 147.57L110.36 147.5L110.28 147.43L110.19 147.36L110.11 147.28L110.02 147.2L109.93 147.12L109.85 147.03L109.76 146.94L109.68 146.85L109.59 146.76L109.5 146.67L109.41 146.57L109.33 146.48L109.24 146.38L109.15 146.28L109.06 146.17L108.97 146.07L103.77 139.36L103.61 139.38L102.07 139.5L100.52 139.55L98.96 139.54L97.39 139.47L96.69 139.41L91.87 146.19L91.79 146.3L91.7 146.4L91.62 146.5L91.54 146.6L91.46 146.7L91.37 146.8L91.29 146.89L91.21 146.99L91.13 147.08L91.05 147.17L90.97 147.25L90.88 147.34L90.8 147.42L90.72 147.5L90.64 147.57L90.56 147.65L90.48 147.72L90.4 147.78L90.31 147.84L90.23 147.9L90.15 147.96L90.07 148.01L89.98 148.06L89.9 148.11L89.81 148.15L89.73 148.18L89.65 148.21L89.56 148.24L89.47 148.26L89.39 148.28L89.3 148.29L89.21 148.3L89.12 148.3L89.03 148.3L88.94 148.29L88.85 148.28L88.76 148.26L88.67 148.24L88.57 148.21L88.48 148.17L74.7 142.46L74.6 142.42L74.51 142.37L74.43 142.32L74.35 142.27L74.27 142.21L74.2 142.15L74.13 142.09L74.06 142.02L74 141.95L73.94 141.88L73.88 141.8L73.83 141.72L73.78 141.64L73.74 141.56L73.7 141.47L73.66 141.38L73.62 141.28L73.59 141.19L73.56 141.09L73.53 140.99L73.51 140.88L73.48 140.78L73.47 140.67L73.45 140.56L73.44 140.45L73.42 140.33L73.42 140.22L73.41 140.1L73.4 139.98L73.4 139.86L73.4 139.73L73.41 139.61L73.41 139.49L73.42 139.36L73.42 139.23L73.43 139.1L73.45 138.97L73.46 138.84L73.48 138.71L73.49 138.58L74.34 130.15L73.79 129.7L72.6 128.63L71.45 127.51L70.35 126.36L69.3 125.17L69.17 125.02L61.06 126.19L60.93 126.21L60.81 126.23L60.68 126.25L60.55 126.27L60.43 126.28L60.31 126.3L60.18 126.31L60.06 126.32L59.94 126.32L59.82 126.33L59.71 126.33L59.59 126.33L59.48 126.33L59.36 126.32L59.25 126.31L59.14 126.3L59.03 126.29L58.93 126.28L58.83 126.26L58.72 126.24L58.62 126.21L58.53 126.18L58.43 126.15L58.34 126.12L58.25 126.08L58.16 126.04L58.08 126L58 125.95L57.92 125.9L57.84 125.85L57.77 125.79L57.7 125.73L57.63 125.66L57.57 125.59L57.5 125.52L57.45 125.44L57.39 125.36L57.34 125.27L57.29 125.18L57.25 125.09L51.22 111.11L51.18 111.01L51.14 110.92L51.12 110.82L51.1 110.73L51.08 110.63L51.07 110.54L51.06 110.45L51.06 110.36L51.07 110.27L51.08 110.18L51.09 110.09L51.11 110L51.13 109.91L51.16 109.82L51.19 109.73L51.23 109.64L51.27 109.56L51.31 109.47L51.36 109.38L51.41 109.3L51.47 109.21L51.52 109.12L51.58 109.04L51.65 108.95L51.72 108.86L51.79 108.78L51.86 108.69L51.94 108.6L52.02 108.52L52.1 108.43L52.18 108.34L52.27 108.26L52.35 108.17L52.44 108.08L52.53 107.99L52.63 107.9L52.72 107.82L52.82 107.73L52.91 107.64L53.01 107.55L59.4 102.35L59.38 102.2L59.24 100.61L59.15 99.01L59.12 97.41L59.16 95.8L59.2 95.09L52.51 89.97L52.4 89.88L52.3 89.79L52.2 89.71L52.1 89.62L52 89.53L51.91 89.45L51.81 89.36L51.72 89.27L51.63 89.19L51.54 89.1L51.46 89.02L51.37 88.93L51.29 88.85L51.21 88.76L51.14 88.67L51.07 88.59L51 88.5L50.93 88.42L50.87 88.33L50.81 88.25L50.75 88.16L50.7 88.07L50.65 87.99L50.61 87.9L50.56 87.81L50.53 87.72L50.49 87.64L50.47 87.55L50.44 87.46L50.42 87.37L50.41 87.28L50.4 87.19L50.39 87.1L50.4 87L50.4 86.91L50.41 86.82L50.43 86.72L50.45 86.63L50.48 86.53L50.51 86.44L55.76 72.37L55.8 72.28L55.84 72.19L55.88 72.1L55.93 72.02L55.99 71.94L56.04 71.87L56.1 71.8L56.17 71.73L56.23 71.67L56.3 71.61L56.38 71.55L56.45 71.5L56.53 71.45L56.62 71.41L56.7 71.37L56.79 71.33L56.88 71.29L56.97 71.26L57.07 71.23L57.17 71.21L57.27 71.18L57.37 71.16L57.47 71.15L57.58 71.13L57.69 71.12L57.8 71.11L57.91 71.11L58.03 71.1L58.14 71.1L58.26 71.1L58.38 71.1L58.5 71.11L58.62 71.12L58.74 71.13L58.87 71.14L58.99 71.15L59.12 71.16L55.05 68.81L54.94 68.87L53.81 69.43L52.65 69.95L51.47 70.42L50.27 70.84L49.73 71.01L48 77.5L47.97 77.6L47.93 77.7L47.9 77.81L47.86 77.91L47.83 78L47.8 78.1L47.76 78.2L47.73 78.29L47.69 78.38L47.65 78.47L47.62 78.56L47.58 78.65L47.54 78.73L47.5 78.82L47.46 78.9L47.42 78.98L47.38 79.05L47.34 79.13L47.29 79.2L47.25 79.27L47.2 79.33L47.15 79.4L47.1 79.46L47.05 79.52L47 79.57L46.95 79.63L46.89 79.67L46.83 79.72L46.78 79.76L46.72 79.8L46.65 79.84L46.59 79.87L46.52 79.9L46.45 79.93L46.38 79.95L46.31 79.97L46.24 79.98L46.16 79.99L46.08 80L46 80L34 80L33.92 80L33.84 79.99L33.76 79.98L33.68 79.97L33.61 79.95L33.54 79.93L33.47 79.9L33.4 79.87L33.33 79.84L33.27 79.8L33.2 79.76L33.14 79.72L33.08 79.67L33.02 79.63L32.97 79.57L32.91 79.52L32.86 79.46L32.81 79.4L32.76 79.33L32.71 79.27L32.66 79.2L32.61 79.13L32.57 79.05L32.52 78.98L32.48 78.9L32.44 78.82L32.4 78.73L32.36 78.65L32.33 78.56L32.29 78.47L32.26 78.38L32.22 78.29L32.19 78.2L32.16 78.1L32.13 78L32.1 77.91L32.08 77.81L32.05 77.7L32.02 77.6L32 77.5L30.27 71.01L29.73 70.84L28.53 70.42L27.35 69.95L26.19 69.43L25.06 68.87L24.93 68.8L19.14 72.15L19.05 72.21L18.96 72.26L18.87 72.31L18.78 72.36L18.69 72.41L18.6 72.46L18.51 72.51L18.42 72.55L18.33 72.59L18.25 72.63L18.16 72.67L18.07 72.7L17.98 72.74L17.9 72.77L17.81 72.8L17.73 72.82L17.64 72.85L17.56 72.87L17.47 72.88L17.39 72.9L17.31 72.91L17.23 72.92L17.15 72.93L17.07 72.93L16.99 72.93L16.91 72.93L16.84 72.92L16.76 72.91L16.69 72.9L16.62 72.88L16.54 72.86L16.47 72.84L16.4 72.81L16.34 72.78L16.27 72.74L16.2 72.7L16.14 72.66L16.08 72.61L16.02 72.56L15.96 72.5L7.47 64.02L7.42 63.96L7.37 63.9L7.32 63.84L7.28 63.77L7.24 63.71L7.2 63.64L7.17 63.58L7.15 63.51L7.12 63.44L7.11 63.37L7.09 63.3L7.08 63.23L7.07 63.16L7.07 63.08L7.07 63.01L7.07 62.93L7.08 62.86L7.08 62.78L7.1 62.7L7.11 62.62L7.13 62.54L7.15 62.46L7.17 62.37L7.19 62.29L7.22 62.2L7.25 62.12L7.28 62.03L7.31 61.95L7.35 61.86L7.38 61.77L7.42 61.68L7.46 61.59L7.5 61.5L7.55 61.4L7.59 61.31L7.64 61.22L7.68 61.12L7.73 61.03L7.78 60.93L7.83 60.84L11.18 55.04L11.13 54.94L10.57 53.81L10.05 52.65L9.58 51.47L9.16 50.27L8.99 49.73L2.5 48L2.4 47.97L2.3 47.93L2.19 47.9L2.09 47.86L2 47.83L1.9 47.8L1.8 47.76L1.71 47.73L1.62 47.69L1.53 47.65L1.44 47.62L1.35 47.58L1.27 47.54L1.18 47.5L1.1 47.46L1.02 47.42L0.95 47.38L0.87 47.34L0.8 47.29L0.73 47.25L0.67 47.2L0.6 47.15L0.54 47.1L0.48 47.05L0.43 47L0.37 46.95L0.33 46.89L0.28 46.83L0.24 46.78L0.2 46.72L0.16 46.65L0.13 46.59L0.1 46.52L0.07 46.45L0.05 46.38L0.03 46.31L0.02 46.24L0.01 46.16L0 46.08L0 46L0 34L0 33.92L0.01 33.84L0.02 33.76L0.03 33.68L0.05 33.61L0.07 33.54L0.1 33.47L0.13 33.4L0.16 33.33L0.2 33.27L0.24 33.2L0.28 33.14L0.33 33.08L0.37 33.02L0.43 32.97L0.48 32.91L0.54 32.86L0.6 32.81L0.67 32.76L0.73 32.71L0.8 32.66L0.87 32.61L0.95 32.57L1.02 32.52L1.1 32.48L1.18 32.44L1.27 32.4L1.35 32.36L1.44 32.33L1.53 32.29L1.62 32.26L1.71 32.22L1.8 32.19L1.9 32.16L2 32.13L2.09 32.1L2.19 32.08L2.3 32.05L2.4 32.02L2.5 32L8.99 30.27L9.16 29.73L9.58 28.53L10.05 27.35L10.57 26.19L11.13 25.06L11.19 24.95L7.83 19.14L7.78 19.04L7.73 18.95L7.68 18.85L7.64 18.76L7.59 18.66L7.55 18.57L7.5 18.48L7.46 18.39L7.42 18.3L7.38 18.21L7.35 18.12L7.31 18.03L7.28 17.94L7.25 17.86L7.22 17.77L7.19 17.69L7.17 17.6L7.15 17.52L7.13 17.44L7.11 17.36L7.1 17.28L7.08 17.2L7.08 17.12L7.07 17.04L7.07 16.97L7.07 16.89L7.07 16.82L7.08 16.75L7.09 16.67L7.11 16.6L7.12 16.53L7.15 16.46L7.17 16.4L7.2 16.33L7.24 16.27L7.28 16.2L7.32 16.14L7.37 16.08L7.42 16.02L7.47 15.96L15.96 7.47L16.02 7.42L16.08 7.36L16.14 7.32L16.2 7.27L16.27 7.23L16.34 7.2L16.4 7.17L16.47 7.14L16.54 7.11L16.62 7.09L16.69 7.08L16.76 7.06L16.84 7.05L16.91 7.05L16.99 7.04L17.07 7.04L17.15 7.05L17.23 7.05L17.31 7.06L17.39 7.08L17.47 7.09L17.56 7.11L17.64 7.13L17.73 7.15L17.81 7.18L17.9 7.21L17.98 7.24L18.07 7.27L18.16 7.31L18.25 7.35L18.33 7.39L18.42 7.43L18.51 7.47L18.6 7.52L18.69 7.56L18.78 7.61L18.87 7.66L18.96 7.72L19.05 7.77L19.14 7.83L24.95 11.19L25.06 11.13L26.19 10.57L27.35 10.05L28.53 9.58L29.73 9.16L30.27 8.99L32 2.5L32.02 2.4L32.05 2.3L32.08 2.19L32.1 2.09L32.13 2L32.16 1.9L32.19 1.8L32.22 1.71L32.26 1.62L32.29 1.53L32.33 1.44L32.36 1.35L32.4 1.27L32.44 1.18L32.48 1.1L32.52 1.02L32.57 0.95L32.61 0.87L32.66 0.8L32.71 0.73L32.76 0.67L32.81 0.6L32.86 0.54L32.91 0.48L32.97 0.43L33.02 0.37L33.08 0.33L33.14 0.28L33.2 0.24L33.27 0.2L33.33 0.16L33.4 0.13L33.47 0.1L33.54 0.07L33.61 0.05L33.68 0.03L33.76 0.02L33.84 0.01L33.92 0L34 0L46 0L46.08 0L46.16 0.01ZM96.64 76.39L95.82 76.49L95 76.62L94.19 76.78L93.38 76.97L92.59 77.2L91.81 77.45L91.04 77.74L90.28 78.05L89.53 78.4L88.8 78.77L88.08 79.18L87.38 79.61L86.69 80.07L86.02 80.56L85.37 81.07L84.74 81.62L84.13 82.19L83.54 82.78L82.97 83.41L82.42 84.06L81.9 84.73L81.4 85.43L80.93 86.15L80.48 86.9L80.06 87.67L79.67 88.46L79.31 89.27L78.98 90.11L78.68 90.97L78.42 91.82L78.19 92.68L78 93.55L77.84 94.42L77.72 95.28L77.64 96.15L77.58 97.02L77.57 97.89L77.58 98.75L77.63 99.61L77.71 100.47L77.82 101.32L77.96 102.16L78.13 103L78.34 103.83L78.57 104.65L78.84 105.46L79.13 106.26L79.45 107.05L79.81 107.83L80.19 108.59L80.6 109.34L81.03 110.07L81.5 110.79L81.99 111.49L82.5 112.17L83.04 112.83L83.61 113.47L84.2 114.09L84.82 114.69L85.46 115.27L86.13 115.82L86.82 116.35L87.53 116.85L88.27 117.33L89.02 117.78L89.8 118.2L90.6 118.59L91.43 118.95L92.26 119.27L93.1 119.56L93.94 119.81L94.79 120.03L95.63 120.21L96.48 120.35L97.33 120.46L98.17 120.53L99.01 120.57L99.85 120.58L100.69 120.55L101.52 120.49L102.34 120.39L103.16 120.26L103.97 120.1L104.77 119.91L105.57 119.69L106.35 119.43L107.12 119.15L107.88 118.83L108.63 118.48L109.36 118.11L110.08 117.71L110.78 117.27L111.47 116.81L112.14 116.32L112.79 115.81L113.42 115.26L114.03 114.69L114.62 114.1L115.19 113.47L115.74 112.83L116.26 112.15L116.76 111.45L117.23 110.73L117.68 109.99L118.1 109.22L118.49 108.42L118.85 107.61L119.18 106.77L119.48 105.92L119.74 105.06L119.97 104.2L120.16 103.33L120.31 102.47L120.44 101.6L120.52 100.73L120.57 99.86L120.59 98.99L120.58 98.13L120.53 97.27L120.45 96.41L120.34 95.56L120.2 94.72L120.03 93.88L119.82 93.05L119.59 92.23L119.32 91.42L119.03 90.62L118.7 89.83L118.35 89.05L117.97 88.29L117.56 87.54L117.13 86.81L116.66 86.09L116.17 85.39L115.66 84.71L115.12 84.05L114.55 83.41L113.95 82.79L113.34 82.19L112.7 81.61L112.03 81.06L111.34 80.53L110.63 80.03L109.89 79.55L109.13 79.1L108.36 78.68L107.55 78.29L106.73 77.93L105.9 77.61L105.06 77.32L104.22 77.07L103.37 76.85L102.53 76.67L101.68 76.53L100.83 76.42L99.99 76.35L99.15 76.31L98.31 76.3L97.47 76.33L96.64 76.39ZM178.56 81L177.86 81.07L177.16 81.17L176.47 81.29L175.79 81.45L175.13 81.63L174.47 81.83L173.82 82.06L173.19 82.31L172.57 82.59L171.96 82.89L171.36 83.21L170.78 83.56L170.22 83.93L169.66 84.31L169.13 84.72L168.61 85.15L168.11 85.6L167.63 86.06L167.16 86.55L166.71 87.05L166.28 87.57L165.88 88.1L165.49 88.65L165.12 89.22L164.78 89.8L164.45 90.4L164.15 91L163.88 91.63L163.62 92.26L163.39 92.91L163.19 93.56L163.01 94.23L162.86 94.91L162.73 95.6L162.63 96.3L162.56 97L162.51 97.72L162.5 98.44L162.51 99.16L162.56 99.87L162.63 100.58L162.73 101.28L162.86 101.96L163.01 102.64L163.19 103.31L163.39 103.97L163.62 104.62L163.88 105.25L164.15 105.87L164.45 106.48L164.78 107.08L165.12 107.66L165.49 108.22L165.88 108.77L166.28 109.31L166.71 109.83L167.16 110.33L167.63 110.81L168.11 111.28L168.61 111.73L169.13 112.15L169.66 112.56L170.22 112.95L170.78 113.32L171.36 113.66L171.96 113.98L172.57 114.29L173.19 114.56L173.82 114.82L174.47 115.05L175.13 115.25L175.79 115.43L176.47 115.58L177.16 115.71L177.86 115.81L178.56 115.88L179.28 115.92L180 115.94L180.72 115.92L181.44 115.88L182.14 115.81L182.84 115.71L183.53 115.58L184.21 115.43L184.87 115.25L185.53 115.05L186.18 114.82L186.81 114.56L187.43 114.29L188.04 113.98L188.64 113.66L189.22 113.32L189.78 112.95L190.34 112.56L190.87 112.15L191.39 111.73L191.89 111.28L192.37 110.81L192.84 110.33L193.29 109.83L193.72 109.31L194.12 108.77L194.51 108.22L194.88 107.66L195.22 107.08L195.55 106.48L195.85 105.87L196.12 105.25L196.38 104.62L196.61 103.97L196.81 103.31L196.99 102.64L197.14 101.96L197.27 101.28L197.37 100.58L197.44 99.87L197.49 99.16L197.5 98.44L197.49 97.72L197.44 97L197.37 96.3L197.27 95.6L197.14 94.91L196.99 94.23L196.81 93.56L196.61 92.91L196.38 92.26L196.12 91.63L195.85 91L195.55 90.4L195.22 89.8L194.88 89.22L194.51 88.65L194.12 88.1L193.72 87.57L193.29 87.05L192.84 86.55L192.37 86.06L191.89 85.6L191.39 85.15L190.87 84.72L190.34 84.31L189.78 83.93L189.22 83.56L188.64 83.21L188.04 82.89L187.43 82.59L186.81 82.31L186.18 82.06L185.53 81.83L184.87 81.63L184.21 81.45L183.53 81.29L182.84 81.17L182.14 81.07L181.44 81L180.72 80.95L180 80.94L179.28 80.95L178.56 81ZM138.77 94.68L138.92 96.27L139.01 97.87L139.03 99.47L139 101.08L138.95 101.8L140 102.59L140 93.48L138.75 94.5L138.77 94.68ZM67.71 72.28L68.14 71.73L69.16 70.52L70.21 69.37L71.31 68.26L72.45 67.2L72.57 67.1L72.15 64.42L64.68 71.89L67.71 72.28ZM38.56 22.56L37.86 22.63L37.16 22.73L36.47 22.86L35.79 23.01L35.13 23.19L34.47 23.39L33.82 23.62L33.19 23.88L32.57 24.15L31.96 24.45L31.36 24.78L30.78 25.12L30.22 25.49L29.66 25.88L29.13 26.28L28.61 26.71L28.11 27.16L27.63 27.63L27.16 28.11L26.71 28.61L26.28 29.13L25.88 29.66L25.49 30.22L25.12 30.78L24.78 31.36L24.45 31.96L24.15 32.57L23.88 33.19L23.62 33.82L23.39 34.47L23.19 35.13L23.01 35.79L22.86 36.47L22.73 37.16L22.63 37.86L22.56 38.56L22.51 39.28L22.5 40L22.51 40.72L22.56 41.44L22.63 42.14L22.73 42.84L22.86 43.53L23.01 44.21L23.19 44.87L23.39 45.53L23.62 46.18L23.88 46.81L24.15 47.43L24.45 48.04L24.78 48.64L25.12 49.22L25.49 49.78L25.88 50.34L26.28 50.87L26.71 51.39L27.16 51.89L27.63 52.37L28.11 52.84L28.61 53.29L29.13 53.72L29.66 54.12L30.22 54.51L30.78 54.88L31.36 55.22L31.96 55.55L32.57 55.85L33.19 56.12L33.82 56.38L34.47 56.61L35.13 56.81L35.79 56.99L36.47 57.14L37.16 57.27L37.86 57.37L38.56 57.44L39.28 57.49L40 57.5L40.72 57.49L41.44 57.44L42.14 57.37L42.84 57.27L43.53 57.14L44.21 56.99L44.87 56.81L45.53 56.61L46.18 56.38L46.81 56.12L47.43 55.85L48.04 55.55L48.64 55.22L49.22 54.88L49.78 54.51L50.34 54.12L50.87 53.72L51.39 53.29L51.89 52.84L52.37 52.37L52.84 51.89L53.29 51.39L53.72 50.87L54.12 50.34L54.51 49.78L54.88 49.22L55.22 48.64L55.55 48.04L55.85 47.43L56.12 46.81L56.38 46.18L56.61 45.53L56.81 44.87L56.99 44.21L57.14 43.53L57.27 42.84L57.37 42.14L57.44 41.44L57.49 40.72L57.5 40L57.49 39.28L57.44 38.56L57.37 37.86L57.27 37.16L57.14 36.47L56.99 35.79L56.81 35.13L56.61 34.47L56.38 33.82L56.12 33.19L55.85 32.57L55.55 31.96L55.22 31.36L54.88 30.78L54.51 30.22L54.12 29.66L53.72 29.13L53.29 28.61L52.84 28.11L52.37 27.63L51.89 27.16L51.39 26.71L50.87 26.28L50.34 25.88L49.78 25.49L49.22 25.12L48.64 24.78L48.04 24.45L47.43 24.15L46.81 23.88L46.18 23.62L45.53 23.39L44.87 23.19L44.21 23.01L43.53 22.86L42.84 22.73L42.14 22.63L41.44 22.56L40.72 22.51L40 22.5L39.28 22.51L38.56 22.56Z" id="a46h8Jf8Me" fill="white" fill-opacity="1" filter="url(#shadow299845)"></path></g><use xlink:href="#akO9gDTSd" opacity="1" fill="#000000" fill-opacity="1"></use></g></g></g></svg>