<?xml version="1.0" encoding="UTF-8" standalone="no"?>
<!DOCTYPE svg PUBLIC "-//W3C//DTD SVG 1.1//EN" "http://www.w3.org/Graphics/SVG/1.1/DTD/svg11.dtd">
<svg version="1.1" xmlns="http://www.w3.org/2000/svg" xmlns:xlink="http://www.w3.org/1999/xlink" preserveAspectRatio="xMidYMid meet" viewBox="0 0 240 310" width="240" height="310"><defs><path d="M106.12 0.37L108.11 0.66L110.07 1.02L112.01 1.45L113.92 1.97L115.8 2.55L117.65 3.21L119.46 3.93L121.23 4.73L122.97 5.59L124.67 6.51L126.33 7.5L127.95 8.55L129.52 9.65L131.05 10.82L132.53 12.04L133.97 13.32L135.35 14.65L136.68 16.04L137.96 17.47L139.18 18.95L140.35 20.48L141.46 22.06L142.51 23.67L143.49 25.33L144.42 27.03L145.28 28.77L146.07 30.55L146.79 32.36L147.45 34.21L148.03 36.08L148.55 37.99L148.98 39.93L149.35 41.9L149.63 43.89L149.83 45.9L149.96 47.94L150 50L149.96 52.06L149.83 54.1L149.63 56.12L149.34 58.11L148.98 60.07L148.55 62.01L148.03 63.92L147.45 65.8L146.79 67.65L146.07 69.46L145.27 71.23L144.41 72.97L143.49 74.67L142.5 76.33L141.45 77.95L140.35 79.52L139.18 81.05L137.96 82.53L136.68 83.97L135.35 85.35L133.96 86.68L132.53 87.96L131.05 89.18L129.52 90.35L128.46 91.09L165.74 155.07L167.2 154.55L169.08 153.97L170.99 153.45L172.93 153.02L174.89 152.65L176.89 152.37L178.9 152.17L180.94 152.04L183 152L185.06 152.04L187.1 152.17L189.11 152.37L191.11 152.65L193.07 153.02L195.01 153.45L196.92 153.97L198.8 154.55L200.64 155.21L202.45 155.93L204.23 156.72L205.97 157.58L207.67 158.51L209.33 159.5L210.95 160.54L212.52 161.65L214.05 162.82L215.53 164.04L216.97 165.32L218.35 166.65L219.68 168.03L220.96 169.47L222.18 170.95L223.35 172.48L224.46 174.05L225.5 175.67L226.49 177.33L227.42 179.03L228.28 180.77L229.07 182.55L229.79 184.36L230.45 186.2L231.03 188.08L231.55 189.99L231.98 191.93L232.35 193.89L232.63 195.89L232.83 197.9L232.96 199.94L233 202L232.96 204.06L232.83 206.1L232.63 208.11L232.35 210.11L231.98 212.07L231.55 214.01L231.03 215.92L230.45 217.8L229.79 219.64L229.07 221.45L228.28 223.23L227.42 224.97L226.49 226.67L225.5 228.33L224.46 229.95L223.35 231.52L222.18 233.05L220.96 234.53L219.68 235.97L218.35 237.35L216.97 238.68L215.53 239.96L214.05 241.18L212.52 242.35L210.95 243.46L209.33 244.5L207.67 245.49L205.97 246.42L204.23 247.28L202.45 248.07L200.64 248.79L198.8 249.45L196.92 250.03L195.01 250.55L193.07 250.98L191.11 251.35L189.11 251.63L187.1 251.83L185.06 251.96L183 252L180.94 251.96L178.9 251.83L176.89 251.63L174.89 251.35L172.93 250.98L170.99 250.55L169.08 250.03L167.2 249.45L165.36 248.79L163.55 248.07L161.77 247.28L160.03 246.42L158.33 245.49L156.67 244.5L155.05 243.46L153.48 242.35L151.95 241.18L150.47 239.96L149.03 238.68L147.65 237.35L146.32 235.97L145.04 234.53L143.82 233.05L142.65 231.52L141.54 229.95L140.5 228.33L139.51 226.67L139.01 225.76L98.86 241.4L98.98 241.93L99.35 243.89L99.63 245.89L99.83 247.9L99.96 249.94L100 252L99.96 254.06L99.83 256.1L99.63 258.11L99.35 260.11L98.98 262.07L98.55 264.01L98.03 265.92L97.45 267.8L96.79 269.64L96.07 271.45L95.28 273.23L94.42 274.97L93.49 276.67L92.5 278.33L91.46 279.95L90.35 281.52L89.18 283.05L87.96 284.53L86.68 285.97L85.35 287.35L83.97 288.68L82.53 289.96L81.05 291.18L79.52 292.35L77.95 293.46L76.33 294.5L74.67 295.49L72.97 296.42L71.23 297.28L69.45 298.07L67.64 298.79L65.8 299.45L63.92 300.03L62.01 300.55L60.07 300.98L58.11 301.35L56.11 301.63L54.1 301.83L52.06 301.96L50 302L47.94 301.96L45.9 301.83L43.89 301.63L41.89 301.35L39.93 300.98L37.99 300.55L36.08 300.03L34.2 299.45L32.36 298.79L30.55 298.07L28.77 297.28L27.03 296.42L25.33 295.49L23.67 294.5L22.05 293.46L20.48 292.35L18.95 291.18L17.47 289.96L16.03 288.68L14.65 287.35L13.32 285.97L12.04 284.53L10.82 283.05L9.65 281.52L8.54 279.95L7.5 278.33L6.51 276.67L5.58 274.97L4.72 273.23L3.93 271.45L3.21 269.64L2.55 267.8L1.97 265.92L1.45 264.01L1.02 262.07L0.65 260.11L0.37 258.11L0.17 256.1L0.04 254.06L0 252L0.04 249.94L0.17 247.9L0.37 245.89L0.65 243.89L1.02 241.93L1.45 239.99L1.97 238.08L2.55 236.2L3.21 234.36L3.93 232.55L4.72 230.77L5.58 229.03L6.51 227.33L7.5 225.67L8.54 224.05L9.65 222.48L10.82 220.95L12.04 219.47L13.32 218.03L14.65 216.65L16.03 215.32L17.47 214.04L18.95 212.82L20.48 211.65L22.05 210.54L23.67 209.5L25.33 208.51L27.03 207.58L28.77 206.72L30.55 205.93L32.36 205.21L34.2 204.55L36.08 203.97L37.99 203.45L39.93 203.02L41.89 202.65L43.89 202.37L45.9 202.17L47.94 202.04L50 202L52.06 202.04L54.1 202.17L56.11 202.37L58.11 202.65L60.07 203.02L62.01 203.45L63.92 203.97L65.8 204.55L67.64 205.21L69.45 205.93L71.23 206.72L72.97 207.58L74.67 208.51L76.33 209.5L77.95 210.54L79.52 211.65L81.05 212.82L82.53 214.04L83.97 215.32L85.35 216.65L86.68 218.03L87.96 219.47L89.18 220.95L90.35 222.48L91.46 224.05L92.5 225.67L93.49 227.33L93.52 227.39L133.94 211.64L133.65 210.11L133.37 208.11L133.17 206.1L133.04 204.06L133 202L133.04 199.94L133.17 197.9L133.37 195.89L133.65 193.89L134.02 191.93L134.45 189.99L134.97 188.08L135.55 186.2L136.21 184.36L136.93 182.55L137.72 180.77L138.58 179.03L139.51 177.33L140.5 175.67L141.54 174.05L142.65 172.48L143.82 170.95L145.04 169.47L146.32 168.03L147.65 166.65L149.03 165.32L150.47 164.04L151.95 162.82L152.6 162.32L114.96 97.71L113.92 98.03L112.01 98.55L110.07 98.98L108.1 99.35L106.11 99.63L104.1 99.83L102.06 99.96L100 100L97.94 99.96L95.9 99.83L93.88 99.63L91.89 99.34L89.93 98.98L87.99 98.55L86.08 98.03L84.2 97.45L82.35 96.79L80.54 96.07L78.77 95.27L77.03 94.41L75.33 93.49L73.67 92.5L72.05 91.45L70.48 90.35L68.95 89.18L67.47 87.96L66.03 86.68L64.65 85.35L63.32 83.96L62.04 82.53L60.82 81.05L59.65 79.52L58.54 77.94L57.49 76.33L56.51 74.67L55.58 72.97L54.72 71.23L53.93 69.45L53.21 67.64L52.55 65.79L51.97 63.92L51.45 62.01L51.02 60.07L50.65 58.1L50.37 56.11L50.17 54.1L50.04 52.06L50 50L50.04 47.94L50.17 45.9L50.37 43.88L50.66 41.89L51.02 39.93L51.45 37.99L51.97 36.08L52.55 34.2L53.21 32.35L53.93 30.54L54.73 28.77L55.59 27.03L56.51 25.33L57.5 23.67L58.55 22.05L59.65 20.48L60.82 18.95L62.04 17.47L63.32 16.03L64.65 14.65L66.04 13.32L67.47 12.04L68.95 10.82L70.48 9.65L72.06 8.54L73.67 7.49L75.33 6.51L77.03 5.58L78.77 4.72L80.55 3.93L82.36 3.21L84.21 2.55L86.08 1.97L87.99 1.45L89.93 1.02L91.9 0.65L93.89 0.37L95.9 0.17L97.94 0.04L100 0L102.06 0.04L104.1 0.17L104.1 0.17L106.12 0.37ZM45.72 217.26L44.33 217.46L42.95 217.71L41.59 218.02L40.26 218.38L38.94 218.79L37.65 219.24L36.38 219.75L35.14 220.31L33.92 220.91L32.73 221.56L31.57 222.25L30.44 222.98L29.34 223.76L28.26 224.57L27.23 225.43L26.22 226.32L25.26 227.26L24.32 228.22L23.43 229.23L22.57 230.26L21.76 231.34L20.98 232.44L20.25 233.57L19.56 234.73L18.91 235.92L18.31 237.14L17.75 238.38L17.24 239.65L16.79 240.94L16.38 242.26L16.02 243.59L15.71 244.95L15.46 246.33L15.26 247.72L15.12 249.13L15.03 250.56L15 252L15.03 253.44L15.12 254.87L15.26 256.28L15.46 257.67L15.71 259.05L16.02 260.41L16.38 261.74L16.79 263.06L17.24 264.35L17.75 265.62L18.31 266.86L18.91 268.08L19.56 269.27L20.25 270.43L20.98 271.56L21.76 272.66L22.57 273.74L23.43 274.77L24.32 275.78L25.26 276.74L26.22 277.68L27.23 278.57L28.26 279.43L29.34 280.24L30.44 281.02L31.57 281.75L32.73 282.44L33.92 283.09L35.14 283.69L36.38 284.25L37.65 284.76L38.94 285.21L40.26 285.62L41.59 285.98L42.95 286.29L44.33 286.54L45.72 286.74L47.13 286.88L48.56 286.97L50 287L51.44 286.97L52.87 286.88L54.28 286.74L55.67 286.54L57.05 286.29L58.41 285.98L59.74 285.62L61.06 285.21L62.35 284.76L63.62 284.25L64.86 283.69L66.08 283.09L67.27 282.44L68.43 281.75L69.56 281.02L70.66 280.24L71.74 279.43L72.77 278.57L73.78 277.68L74.74 276.74L75.68 275.78L76.57 274.77L77.43 273.74L78.24 272.66L79.02 271.56L79.75 270.43L80.44 269.27L81.09 268.08L81.69 266.86L82.25 265.62L82.76 264.35L83.21 263.06L83.62 261.74L83.98 260.41L84.29 259.05L84.54 257.67L84.74 256.28L84.88 254.87L84.97 253.44L85 252L84.97 250.56L84.88 249.13L84.74 247.72L84.54 246.33L84.29 244.95L83.98 243.59L83.62 242.26L83.21 240.94L82.76 239.65L82.25 238.38L81.69 237.14L81.09 235.92L80.44 234.73L79.75 233.57L79.02 232.44L78.24 231.34L77.43 230.26L76.57 229.23L75.68 228.22L74.74 227.26L73.78 226.32L72.77 225.43L71.74 224.57L70.66 223.76L69.56 222.98L68.43 222.25L67.27 221.56L66.08 220.91L64.86 220.31L63.62 219.75L62.35 219.24L61.06 218.79L59.74 218.38L58.41 218.02L57.05 217.71L55.67 217.46L54.28 217.26L52.87 217.12L51.44 217.03L50 217L48.56 217.03L47.13 217.12L47.13 217.12L45.72 217.26ZM178.72 167.26L177.33 167.46L175.95 167.71L174.59 168.02L173.26 168.38L171.94 168.79L170.65 169.24L169.38 169.75L168.14 170.31L166.92 170.91L165.73 171.56L164.57 172.25L163.44 172.98L162.34 173.76L161.26 174.57L160.23 175.43L159.22 176.32L158.26 177.26L157.32 178.22L156.43 179.23L155.57 180.26L154.76 181.34L153.98 182.44L153.25 183.57L152.56 184.73L151.91 185.92L151.31 187.14L150.75 188.38L150.24 189.65L149.79 190.94L149.38 192.26L149.02 193.59L148.71 194.95L148.46 196.33L148.26 197.72L148.12 199.13L148.03 200.56L148 202L148.03 203.44L148.12 204.87L148.26 206.28L148.46 207.67L148.71 209.05L149.02 210.41L149.38 211.74L149.79 213.06L150.24 214.35L150.75 215.62L151.31 216.86L151.91 218.08L152.56 219.27L153.25 220.43L153.98 221.56L154.76 222.66L155.57 223.74L156.43 224.77L157.32 225.78L158.26 226.74L159.22 227.68L160.23 228.57L161.26 229.43L162.34 230.24L163.44 231.02L164.57 231.75L165.73 232.44L166.92 233.09L168.14 233.69L169.38 234.25L170.65 234.76L171.94 235.21L173.26 235.62L174.59 235.98L175.95 236.29L177.33 236.54L178.72 236.74L180.13 236.88L181.56 236.97L183 237L184.44 236.97L185.87 236.88L187.28 236.74L188.67 236.54L190.05 236.29L191.41 235.98L192.74 235.62L194.06 235.21L195.35 234.76L196.62 234.25L197.86 233.69L199.08 233.09L200.27 232.44L201.43 231.75L202.56 231.02L203.66 230.24L204.74 229.43L205.77 228.57L206.78 227.68L207.74 226.74L208.68 225.78L209.57 224.77L210.43 223.74L211.24 222.66L212.02 221.56L212.75 220.43L213.44 219.27L214.09 218.08L214.69 216.86L215.25 215.62L215.76 214.35L216.21 213.06L216.62 211.74L216.98 210.41L217.29 209.05L217.54 207.67L217.74 206.28L217.88 204.87L217.97 203.44L218 202L217.97 200.56L217.88 199.13L217.74 197.72L217.54 196.33L217.29 194.95L216.98 193.59L216.62 192.26L216.21 190.94L215.76 189.65L215.25 188.38L214.69 187.14L214.09 185.92L213.44 184.73L212.75 183.57L212.02 182.44L211.24 181.34L210.43 180.26L209.57 179.23L208.68 178.22L207.74 177.26L206.78 176.32L205.77 175.43L204.74 174.57L203.66 173.76L202.56 172.98L201.43 172.25L200.27 171.56L199.08 170.91L197.86 170.31L196.62 169.75L195.35 169.24L194.06 168.79L192.74 168.38L191.41 168.02L190.05 167.71L188.67 167.46L187.28 167.26L185.87 167.12L184.44 167.03L183 167L181.56 167.03L180.13 167.12L180.13 167.12L178.72 167.26ZM208.5 207.96L190 207.96L190 226L178 226L178 207.96L159.5 207.96L159.5 195.96L178 195.96L178 177L190 177L190 195.96L208.5 195.96L208.5 195.96L208.5 207.96ZM95.72 15.26L94.33 15.46L92.95 15.71L91.6 16.02L90.26 16.38L88.94 16.78L87.65 17.24L86.38 17.75L85.14 18.31L83.92 18.91L82.73 19.55L81.57 20.25L80.44 20.98L79.34 21.76L78.27 22.57L77.23 23.43L76.23 24.32L75.26 25.25L74.33 26.22L73.43 27.23L72.57 28.26L71.76 29.33L70.98 30.44L70.25 31.57L69.56 32.73L68.91 33.92L68.31 35.14L67.75 36.38L67.25 37.65L66.79 38.94L66.38 40.25L66.02 41.59L65.71 42.95L65.46 44.32L65.26 45.72L65.12 47.13L65.03 48.56L65 50L65.03 51.44L65.12 52.87L65.26 54.28L65.46 55.67L65.71 57.05L66.02 58.4L66.38 59.74L66.78 61.06L67.24 62.35L67.75 63.62L68.31 64.86L68.91 66.08L69.55 67.27L70.25 68.43L70.98 69.56L71.76 70.66L72.57 71.73L73.43 72.77L74.32 73.77L75.25 74.74L76.22 75.67L77.23 76.57L78.26 77.43L79.33 78.24L80.44 79.02L81.57 79.75L82.73 80.44L83.92 81.09L85.14 81.69L86.38 82.25L87.65 82.75L88.94 83.21L90.25 83.62L91.59 83.98L92.95 84.29L94.32 84.54L95.72 84.74L97.13 84.88L98.56 84.97L100 85L101.44 84.97L102.87 84.88L104.28 84.74L105.67 84.54L107.05 84.29L108.4 83.98L109.74 83.62L111.06 83.22L112.35 82.76L113.62 82.25L114.86 81.69L116.08 81.09L117.27 80.45L118.43 79.75L119.56 79.02L120.66 78.24L121.73 77.43L122.77 76.57L123.77 75.68L124.74 74.75L125.67 73.78L126.57 72.77L127.43 71.74L128.24 70.67L129.02 69.56L129.75 68.43L130.44 67.27L131.09 66.08L131.69 64.86L132.25 63.62L132.75 62.35L133.21 61.06L133.62 59.75L133.98 58.41L134.29 57.05L134.54 55.68L134.74 54.28L134.88 52.87L134.97 51.44L135 50L134.97 48.56L134.88 47.13L134.74 45.72L134.54 44.33L134.29 42.95L133.98 41.6L133.62 40.26L133.22 38.94L132.76 37.65L132.25 36.38L131.69 35.14L131.09 33.92L130.45 32.73L129.75 31.57L129.02 30.44L128.24 29.34L127.43 28.27L126.57 27.23L125.68 26.23L124.75 25.26L123.78 24.33L122.77 23.43L121.74 22.57L120.67 21.76L119.56 20.98L118.43 20.25L117.27 19.56L116.08 18.91L114.86 18.31L113.62 17.75L112.35 17.25L111.06 16.79L109.75 16.38L108.41 16.02L107.05 15.71L105.68 15.46L104.28 15.26L102.87 15.12L101.44 15.03L100 15L98.56 15.03L97.13 15.12L97.13 15.12L95.72 15.26Z" id="b27VDVpXEH"></path><linearGradient id="gradientb28GJjXVZl" gradientUnits="userSpaceOnUse" x1="8.54" y1="-42.27" x2="86.87" y2="171.37"><stop style="stop-color: #ffffff;stop-opacity: 1" offset="0%"></stop><stop style="stop-color: #010000;stop-opacity: 1" offset="100%"></stop></linearGradient></defs><g><g><g><g><filter id="shadow16471542" x="-30" y="-30" width="298" height="367" filterUnits="userSpaceOnUse" primitiveUnits="userSpaceOnUse"><feFlood></feFlood><feComposite in2="SourceAlpha" operator="in"></feComposite><feGaussianBlur stdDeviation="3.16"></feGaussianBlur><feOffset dx="5" dy="5" result="afterOffset"></feOffset><feFlood flood-color="#000000" flood-opacity="0.5"></feFlood><feComposite in2="afterOffset" operator="in"></feComposite><feMorphology operator="dilate" radius="0"></feMorphology><feComposite in2="SourceAlpha" operator="out"></feComposite></filter><path d="M106.12 0.37L108.11 0.66L110.07 1.02L112.01 1.45L113.92 1.97L115.8 2.55L117.65 3.21L119.46 3.93L121.23 4.73L122.97 5.59L124.67 6.51L126.33 7.5L127.95 8.55L129.52 9.65L131.05 10.82L132.53 12.04L133.97 13.32L135.35 14.65L136.68 16.04L137.96 17.47L139.18 18.95L140.35 20.48L141.46 22.06L142.51 23.67L143.49 25.33L144.42 27.03L145.28 28.77L146.07 30.55L146.79 32.36L147.45 34.21L148.03 36.08L148.55 37.99L148.98 39.93L149.35 41.9L149.63 43.89L149.83 45.9L149.96 47.94L150 50L149.96 52.06L149.83 54.1L149.63 56.12L149.34 58.11L148.98 60.07L148.55 62.01L148.03 63.92L147.45 65.8L146.79 67.65L146.07 69.46L145.27 71.23L144.41 72.97L143.49 74.67L142.5 76.33L141.45 77.95L140.35 79.52L139.18 81.05L137.96 82.53L136.68 83.97L135.35 85.35L133.96 86.68L132.53 87.96L131.05 89.18L129.52 90.35L128.46 91.09L165.74 155.07L167.2 154.55L169.08 153.97L170.99 153.45L172.93 153.02L174.89 152.65L176.89 152.37L178.9 152.17L180.94 152.04L183 152L185.06 152.04L187.1 152.17L189.11 152.37L191.11 152.65L193.07 153.02L195.01 153.45L196.92 153.97L198.8 154.55L200.64 155.21L202.45 155.93L204.23 156.72L205.97 157.58L207.67 158.51L209.33 159.5L210.95 160.54L212.52 161.65L214.05 162.82L215.53 164.04L216.97 165.32L218.35 166.65L219.68 168.03L220.96 169.47L222.18 170.95L223.35 172.48L224.46 174.05L225.5 175.67L226.49 177.33L227.42 179.03L228.28 180.77L229.07 182.55L229.79 184.36L230.45 186.2L231.03 188.08L231.55 189.99L231.98 191.93L232.35 193.89L232.63 195.89L232.83 197.9L232.96 199.94L233 202L232.96 204.06L232.83 206.1L232.63 208.11L232.35 210.11L231.98 212.07L231.55 214.01L231.03 215.92L230.45 217.8L229.79 219.64L229.07 221.45L228.28 223.23L227.42 224.97L226.49 226.67L225.5 228.33L224.46 229.95L223.35 231.52L222.18 233.05L220.96 234.53L219.68 235.97L218.35 237.35L216.97 238.68L215.53 239.96L214.05 241.18L212.52 242.35L210.95 243.46L209.33 244.5L207.67 245.49L205.97 246.42L204.23 247.28L202.45 248.07L200.64 248.79L198.8 249.45L196.92 250.03L195.01 250.55L193.07 250.98L191.11 251.35L189.11 251.63L187.1 251.83L185.06 251.96L183 252L180.94 251.96L178.9 251.83L176.89 251.63L174.89 251.35L172.93 250.98L170.99 250.55L169.08 250.03L167.2 249.45L165.36 248.79L163.55 248.07L161.77 247.28L160.03 246.42L158.33 245.49L156.67 244.5L155.05 243.46L153.48 242.35L151.95 241.18L150.47 239.96L149.03 238.68L147.65 237.35L146.32 235.97L145.04 234.53L143.82 233.05L142.65 231.52L141.54 229.95L140.5 228.33L139.51 226.67L139.01 225.76L98.86 241.4L98.98 241.93L99.35 243.89L99.63 245.89L99.83 247.9L99.96 249.94L100 252L99.96 254.06L99.83 256.1L99.63 258.11L99.35 260.11L98.98 262.07L98.55 264.01L98.03 265.92L97.45 267.8L96.79 269.64L96.07 271.45L95.28 273.23L94.42 274.97L93.49 276.67L92.5 278.33L91.46 279.95L90.35 281.52L89.18 283.05L87.96 284.53L86.68 285.97L85.35 287.35L83.97 288.68L82.53 289.96L81.05 291.18L79.52 292.35L77.95 293.46L76.33 294.5L74.67 295.49L72.97 296.42L71.23 297.28L69.45 298.07L67.64 298.79L65.8 299.45L63.92 300.03L62.01 300.55L60.07 300.98L58.11 301.35L56.11 301.63L54.1 301.83L52.06 301.96L50 302L47.94 301.96L45.9 301.83L43.89 301.63L41.89 301.35L39.93 300.98L37.99 300.55L36.08 300.03L34.2 299.45L32.36 298.79L30.55 298.07L28.77 297.28L27.03 296.42L25.33 295.49L23.67 294.5L22.05 293.46L20.48 292.35L18.95 291.18L17.47 289.96L16.03 288.68L14.65 287.35L13.32 285.97L12.04 284.53L10.82 283.05L9.65 281.52L8.54 279.95L7.5 278.33L6.51 276.67L5.58 274.97L4.72 273.23L3.93 271.45L3.21 269.64L2.55 267.8L1.97 265.92L1.45 264.01L1.02 262.07L0.65 260.11L0.37 258.11L0.17 256.1L0.04 254.06L0 252L0.04 249.94L0.17 247.9L0.37 245.89L0.65 243.89L1.02 241.93L1.45 239.99L1.97 238.08L2.55 236.2L3.21 234.36L3.93 232.55L4.72 230.77L5.58 229.03L6.51 227.33L7.5 225.67L8.54 224.05L9.65 222.48L10.82 220.95L12.04 219.47L13.32 218.03L14.65 216.65L16.03 215.32L17.47 214.04L18.95 212.82L20.48 211.65L22.05 210.54L23.67 209.5L25.33 208.51L27.03 207.58L28.77 206.72L30.55 205.93L32.36 205.21L34.2 204.55L36.08 203.97L37.99 203.45L39.93 203.02L41.89 202.65L43.89 202.37L45.9 202.17L47.94 202.04L50 202L52.06 202.04L54.1 202.17L56.11 202.37L58.11 202.65L60.07 203.02L62.01 203.45L63.92 203.97L65.8 204.55L67.64 205.21L69.45 205.93L71.23 206.72L72.97 207.58L74.67 208.51L76.33 209.5L77.95 210.54L79.52 211.65L81.05 212.82L82.53 214.04L83.97 215.32L85.35 216.65L86.68 218.03L87.96 219.47L89.18 220.95L90.35 222.48L91.46 224.05L92.5 225.67L93.49 227.33L93.52 227.39L133.94 211.64L133.65 210.11L133.37 208.11L133.17 206.1L133.04 204.06L133 202L133.04 199.94L133.17 197.9L133.37 195.89L133.65 193.89L134.02 191.93L134.45 189.99L134.97 188.08L135.55 186.2L136.21 184.36L136.93 182.55L137.72 180.77L138.58 179.03L139.51 177.33L140.5 175.67L141.54 174.05L142.65 172.48L143.82 170.95L145.04 169.47L146.32 168.03L147.65 166.65L149.03 165.32L150.47 164.04L151.95 162.82L152.6 162.32L114.96 97.71L113.92 98.03L112.01 98.55L110.07 98.98L108.1 99.35L106.11 99.63L104.1 99.83L102.06 99.96L100 100L97.94 99.96L95.9 99.83L93.88 99.63L91.89 99.34L89.93 98.98L87.99 98.55L86.08 98.03L84.2 97.45L82.35 96.79L80.54 96.07L78.77 95.27L77.03 94.41L75.33 93.49L73.67 92.5L72.05 91.45L70.48 90.35L68.95 89.18L67.47 87.96L66.03 86.68L64.65 85.35L63.32 83.96L62.04 82.53L60.82 81.05L59.65 79.52L58.54 77.94L57.49 76.33L56.51 74.67L55.58 72.97L54.72 71.23L53.93 69.45L53.21 67.64L52.55 65.79L51.97 63.92L51.45 62.01L51.02 60.07L50.65 58.1L50.37 56.11L50.17 54.1L50.04 52.06L50 50L50.04 47.94L50.17 45.9L50.37 43.88L50.66 41.89L51.02 39.93L51.45 37.99L51.97 36.08L52.55 34.2L53.21 32.35L53.93 30.54L54.73 28.77L55.59 27.03L56.51 25.33L57.5 23.67L58.55 22.05L59.65 20.48L60.82 18.95L62.04 17.47L63.32 16.03L64.65 14.65L66.04 13.32L67.47 12.04L68.95 10.82L70.48 9.65L72.06 8.54L73.67 7.49L75.33 6.51L77.03 5.58L78.77 4.72L80.55 3.93L82.36 3.21L84.21 2.55L86.08 1.97L87.99 1.45L89.93 1.02L91.9 0.65L93.89 0.37L95.9 0.17L97.94 0.04L100 0L102.06 0.04L104.1 0.17L104.1 0.17L106.12 0.37ZM45.72 217.26L44.33 217.46L42.95 217.71L41.59 218.02L40.26 218.38L38.94 218.79L37.65 219.24L36.38 219.75L35.14 220.31L33.92 220.91L32.73 221.56L31.57 222.25L30.44 222.98L29.34 223.76L28.26 224.57L27.23 225.43L26.22 226.32L25.26 227.26L24.32 228.22L23.43 229.23L22.57 230.26L21.76 231.34L20.98 232.44L20.25 233.57L19.56 234.73L18.91 235.92L18.31 237.14L17.75 238.38L17.24 239.65L16.79 240.94L16.38 242.26L16.02 243.59L15.71 244.95L15.46 246.33L15.26 247.72L15.12 249.13L15.03 250.56L15 252L15.03 253.44L15.12 254.87L15.26 256.28L15.46 257.67L15.71 259.05L16.02 260.41L16.38 261.74L16.79 263.06L17.24 264.35L17.75 265.62L18.31 266.86L18.91 268.08L19.56 269.27L20.25 270.43L20.98 271.56L21.76 272.66L22.57 273.74L23.43 274.77L24.32 275.78L25.26 276.74L26.22 277.68L27.23 278.57L28.26 279.43L29.34 280.24L30.44 281.02L31.57 281.75L32.73 282.44L33.92 283.09L35.14 283.69L36.38 284.25L37.65 284.76L38.94 285.21L40.26 285.62L41.59 285.98L42.95 286.29L44.33 286.54L45.72 286.74L47.13 286.88L48.56 286.97L50 287L51.44 286.97L52.87 286.88L54.28 286.74L55.67 286.54L57.05 286.29L58.41 285.98L59.74 285.62L61.06 285.21L62.35 284.76L63.62 284.25L64.86 283.69L66.08 283.09L67.27 282.44L68.43 281.75L69.56 281.02L70.66 280.24L71.74 279.43L72.77 278.57L73.78 277.68L74.74 276.74L75.68 275.78L76.57 274.77L77.43 273.74L78.24 272.66L79.02 271.56L79.75 270.43L80.44 269.27L81.09 268.08L81.69 266.86L82.25 265.62L82.76 264.35L83.21 263.06L83.62 261.74L83.98 260.41L84.29 259.05L84.54 257.67L84.74 256.28L84.88 254.87L84.97 253.44L85 252L84.97 250.56L84.88 249.13L84.74 247.72L84.54 246.33L84.29 244.95L83.98 243.59L83.62 242.26L83.21 240.94L82.76 239.65L82.25 238.38L81.69 237.14L81.09 235.92L80.44 234.73L79.75 233.57L79.02 232.44L78.24 231.34L77.43 230.26L76.57 229.23L75.68 228.22L74.74 227.26L73.78 226.32L72.77 225.43L71.74 224.57L70.66 223.76L69.56 222.98L68.43 222.25L67.27 221.56L66.08 220.91L64.86 220.31L63.62 219.75L62.35 219.24L61.06 218.79L59.74 218.38L58.41 218.02L57.05 217.71L55.67 217.46L54.28 217.26L52.87 217.12L51.44 217.03L50 217L48.56 217.03L47.13 217.12L47.13 217.12L45.72 217.26ZM178.72 167.26L177.33 167.46L175.95 167.71L174.59 168.02L173.26 168.38L171.94 168.79L170.65 169.24L169.38 169.75L168.14 170.31L166.92 170.91L165.73 171.56L164.57 172.25L163.44 172.98L162.34 173.76L161.26 174.57L160.23 175.43L159.22 176.32L158.26 177.26L157.32 178.22L156.43 179.23L155.57 180.26L154.76 181.34L153.98 182.44L153.25 183.57L152.56 184.73L151.91 185.92L151.31 187.14L150.75 188.38L150.24 189.65L149.79 190.94L149.38 192.26L149.02 193.59L148.71 194.95L148.46 196.33L148.26 197.72L148.12 199.13L148.03 200.56L148 202L148.03 203.44L148.12 204.87L148.26 206.28L148.46 207.67L148.71 209.05L149.02 210.41L149.38 211.74L149.79 213.06L150.24 214.35L150.75 215.62L151.31 216.86L151.91 218.08L152.56 219.27L153.25 220.43L153.98 221.56L154.76 222.66L155.57 223.74L156.43 224.77L157.32 225.78L158.26 226.74L159.22 227.68L160.23 228.57L161.26 229.43L162.34 230.24L163.44 231.02L164.57 231.75L165.73 232.44L166.92 233.09L168.14 233.69L169.38 234.25L170.65 234.76L171.94 235.21L173.26 235.62L174.59 235.98L175.95 236.29L177.33 236.54L178.72 236.74L180.13 236.88L181.56 236.97L183 237L184.44 236.97L185.87 236.88L187.28 236.74L188.67 236.54L190.05 236.29L191.41 235.98L192.74 235.62L194.06 235.21L195.35 234.76L196.62 234.25L197.86 233.69L199.08 233.09L200.27 232.44L201.43 231.75L202.56 231.02L203.66 230.24L204.74 229.43L205.77 228.57L206.78 227.68L207.74 226.74L208.68 225.78L209.57 224.77L210.43 223.74L211.24 222.66L212.02 221.56L212.75 220.43L213.44 219.27L214.09 218.08L214.69 216.86L215.25 215.62L215.76 214.35L216.21 213.06L216.62 211.74L216.98 210.41L217.29 209.05L217.54 207.67L217.74 206.28L217.88 204.87L217.97 203.44L218 202L217.97 200.56L217.88 199.13L217.74 197.72L217.54 196.33L217.29 194.95L216.98 193.59L216.62 192.26L216.21 190.94L215.76 189.65L215.25 188.38L214.69 187.14L214.09 185.92L213.44 184.73L212.75 183.57L212.02 182.44L211.24 181.34L210.43 180.26L209.57 179.23L208.68 178.22L207.74 177.26L206.78 176.32L205.77 175.43L204.74 174.57L203.66 173.76L202.56 172.98L201.43 172.25L200.27 171.56L199.08 170.91L197.86 170.31L196.62 169.75L195.35 169.24L194.06 168.79L192.74 168.38L191.41 168.02L190.05 167.71L188.67 167.46L187.28 167.26L185.87 167.12L184.44 167.03L183 167L181.56 167.03L180.13 167.12L180.13 167.12L178.72 167.26ZM208.5 207.96L190 207.96L190 226L178 226L178 207.96L159.5 207.96L159.5 195.96L178 195.96L178 177L190 177L190 195.96L208.5 195.96L208.5 195.96L208.5 207.96ZM95.72 15.26L94.33 15.46L92.95 15.71L91.6 16.02L90.26 16.38L88.94 16.78L87.65 17.24L86.38 17.75L85.14 18.31L83.92 18.91L82.73 19.55L81.57 20.25L80.44 20.98L79.34 21.76L78.27 22.57L77.23 23.43L76.23 24.32L75.26 25.25L74.33 26.22L73.43 27.23L72.57 28.26L71.76 29.33L70.98 30.44L70.25 31.57L69.56 32.73L68.91 33.92L68.31 35.14L67.75 36.38L67.25 37.65L66.79 38.94L66.38 40.25L66.02 41.59L65.71 42.95L65.46 44.32L65.26 45.72L65.12 47.13L65.03 48.56L65 50L65.03 51.44L65.12 52.87L65.26 54.28L65.46 55.67L65.71 57.05L66.02 58.4L66.38 59.74L66.78 61.06L67.24 62.35L67.75 63.62L68.31 64.86L68.91 66.08L69.55 67.27L70.25 68.43L70.98 69.56L71.76 70.66L72.57 71.73L73.43 72.77L74.32 73.77L75.25 74.74L76.22 75.67L77.23 76.57L78.26 77.43L79.33 78.24L80.44 79.02L81.57 79.75L82.73 80.44L83.92 81.09L85.14 81.69L86.38 82.25L87.65 82.75L88.94 83.21L90.25 83.62L91.59 83.98L92.95 84.29L94.32 84.54L95.72 84.74L97.13 84.88L98.56 84.97L100 85L101.44 84.97L102.87 84.88L104.28 84.74L105.67 84.54L107.05 84.29L108.4 83.98L109.74 83.62L111.06 83.22L112.35 82.76L113.62 82.25L114.86 81.69L116.08 81.09L117.27 80.45L118.43 79.75L119.56 79.02L120.66 78.24L121.73 77.43L122.77 76.57L123.77 75.68L124.74 74.75L125.67 73.78L126.57 72.77L127.43 71.74L128.24 70.67L129.02 69.56L129.75 68.43L130.44 67.27L131.09 66.08L131.69 64.86L132.25 63.62L132.75 62.35L133.21 61.06L133.62 59.75L133.98 58.41L134.29 57.05L134.54 55.68L134.74 54.28L134.88 52.87L134.97 51.44L135 50L134.97 48.56L134.88 47.13L134.74 45.72L134.54 44.33L134.29 42.95L133.98 41.6L133.62 40.26L133.22 38.94L132.76 37.65L132.25 36.38L131.69 35.14L131.09 33.92L130.45 32.73L129.75 31.57L129.02 30.44L128.24 29.34L127.43 28.27L126.57 27.23L125.68 26.23L124.75 25.26L123.78 24.33L122.77 23.43L121.74 22.57L120.67 21.76L119.56 20.98L118.43 20.25L117.27 19.56L116.08 18.91L114.86 18.31L113.62 17.75L112.35 17.25L111.06 16.79L109.75 16.38L108.41 16.02L107.05 15.71L105.68 15.46L104.28 15.26L102.87 15.12L101.44 15.03L100 15L98.56 15.03L97.13 15.12L97.13 15.12L95.72 15.26Z" id="c3mx28wBe5" fill="white" fill-opacity="1" filter="url(#shadow16471542)"></path></g><use xlink:href="#b27VDVpXEH" opacity="1" fill="url(#gradientb28GJjXVZl)"></use></g></g></g></svg>